solid OpenSCAD_Model
  facet normal 0.146736 0.989176 -0
    outer loop
      vertex 1.17054 5.88471 0
      vertex 0.588102 5.97111 22
      vertex 1.17054 5.88471 22
    endloop
  endfacet
  facet normal 0.146736 0.989176 0
    outer loop
      vertex 0.588102 5.97111 22
      vertex 1.17054 5.88471 0
      vertex 0.588102 5.97111 0
    endloop
  endfacet
  facet normal 0.989176 0.146736 0
    outer loop
      vertex 5.97111 0.588102 22
      vertex 5.88471 1.17054 0
      vertex 5.88471 1.17054 22
    endloop
  endfacet
  facet normal 0.989176 0.146736 0
    outer loop
      vertex 5.88471 1.17054 0
      vertex 5.97111 0.588102 22
      vertex 5.97111 0.588102 0
    endloop
  endfacet
  facet normal 0.998796 0.049065 0
    outer loop
      vertex 6 0 22
      vertex 5.97111 0.588102 0
      vertex 5.97111 0.588102 22
    endloop
  endfacet
  facet normal 0.998796 0.049065 0
    outer loop
      vertex 5.97111 0.588102 0
      vertex 6 0 22
      vertex 6 0 0
    endloop
  endfacet
  facet normal 0.970032 0.242979 0
    outer loop
      vertex 5.88471 1.17054 22
      vertex 5.74164 1.74171 0
      vertex 5.74164 1.74171 22
    endloop
  endfacet
  facet normal 0.970032 0.242979 0
    outer loop
      vertex 5.74164 1.74171 0
      vertex 5.88471 1.17054 22
      vertex 5.88471 1.17054 0
    endloop
  endfacet
  facet normal 0.336884 -0.941546 0
    outer loop
      vertex 1.74171 -5.74164 0
      vertex 2.2961 -5.54328 22
      vertex 1.74171 -5.74164 22
    endloop
  endfacet
  facet normal 0.336884 -0.941546 0
    outer loop
      vertex 2.2961 -5.54328 22
      vertex 1.74171 -5.74164 0
      vertex 2.2961 -5.54328 0
    endloop
  endfacet
  facet normal 0.903989 -0.427556 0
    outer loop
      vertex 5.29153 -2.82838 22
      vertex 5.54328 -2.2961 0
      vertex 5.54328 -2.2961 22
    endloop
  endfacet
  facet normal 0.903989 -0.427556 0
    outer loop
      vertex 5.54328 -2.2961 0
      vertex 5.29153 -2.82838 22
      vertex 5.29153 -2.82838 0
    endloop
  endfacet
  facet normal 0.671558 0.740952 -0
    outer loop
      vertex 4.24264 4.24264 0
      vertex 3.80636 4.63806 22
      vertex 4.24264 4.24264 22
    endloop
  endfacet
  facet normal 0.671558 0.740952 0
    outer loop
      vertex 3.80636 4.63806 22
      vertex 4.24264 4.24264 0
      vertex 3.80636 4.63806 0
    endloop
  endfacet
  facet normal -0.740952 0.671558 0
    outer loop
      vertex -4.63806 3.80636 0
      vertex -4.24264 4.24264 22
      vertex -4.24264 4.24264 0
    endloop
  endfacet
  facet normal -0.740952 0.671558 0
    outer loop
      vertex -4.24264 4.24264 22
      vertex -4.63806 3.80636 0
      vertex -4.63806 3.80636 22
    endloop
  endfacet
  facet normal -0.146736 -0.989176 0
    outer loop
      vertex -1.17054 -5.88471 0
      vertex -0.588102 -5.97111 22
      vertex -1.17054 -5.88471 22
    endloop
  endfacet
  facet normal -0.146736 -0.989176 -0
    outer loop
      vertex -0.588102 -5.97111 22
      vertex -1.17054 -5.88471 0
      vertex -0.588102 -5.97111 0
    endloop
  endfacet
  facet normal 0.941546 0.336884 0
    outer loop
      vertex 5.74164 1.74171 22
      vertex 5.54328 2.2961 0
      vertex 5.54328 2.2961 22
    endloop
  endfacet
  facet normal 0.941546 0.336884 0
    outer loop
      vertex 5.54328 2.2961 0
      vertex 5.74164 1.74171 22
      vertex 5.74164 1.74171 0
    endloop
  endfacet
  facet normal -0.049065 0.998796 0
    outer loop
      vertex 0 6 0
      vertex -0.588102 5.97111 22
      vertex 0 6 22
    endloop
  endfacet
  facet normal -0.049065 0.998796 0
    outer loop
      vertex -0.588102 5.97111 22
      vertex 0 6 0
      vertex -0.588102 5.97111 0
    endloop
  endfacet
  facet normal 0.803204 0.595703 0
    outer loop
      vertex 4.98882 3.33342 22
      vertex 4.63806 3.80636 0
      vertex 4.63806 3.80636 22
    endloop
  endfacet
  facet normal 0.803204 0.595703 0
    outer loop
      vertex 4.63806 3.80636 0
      vertex 4.98882 3.33342 22
      vertex 4.98882 3.33342 0
    endloop
  endfacet
  facet normal 0.049065 -0.998796 0
    outer loop
      vertex 0 -6 0
      vertex 0.588102 -5.97111 22
      vertex 0 -6 22
    endloop
  endfacet
  facet normal 0.049065 -0.998796 0
    outer loop
      vertex 0.588102 -5.97111 22
      vertex 0 -6 0
      vertex 0.588102 -5.97111 0
    endloop
  endfacet
  facet normal 0.049065 0.998796 -0
    outer loop
      vertex 0.588102 5.97111 0
      vertex 0 6 22
      vertex 0.588102 5.97111 22
    endloop
  endfacet
  facet normal 0.049065 0.998796 0
    outer loop
      vertex 0 6 22
      vertex 0.588102 5.97111 0
      vertex 0 6 0
    endloop
  endfacet
  facet normal 0.857728 -0.514104 0
    outer loop
      vertex 4.98882 -3.33342 22
      vertex 5.29153 -2.82838 0
      vertex 5.29153 -2.82838 22
    endloop
  endfacet
  facet normal 0.857728 -0.514104 0
    outer loop
      vertex 5.29153 -2.82838 0
      vertex 4.98882 -3.33342 22
      vertex 4.98882 -3.33342 0
    endloop
  endfacet
  facet normal -0.595703 -0.803204 0
    outer loop
      vertex -3.80636 -4.63806 0
      vertex -3.33342 -4.98882 22
      vertex -3.80636 -4.63806 22
    endloop
  endfacet
  facet normal -0.595703 -0.803204 -0
    outer loop
      vertex -3.33342 -4.98882 22
      vertex -3.80636 -4.63806 0
      vertex -3.33342 -4.98882 0
    endloop
  endfacet
  facet normal -0.857728 0.514104 0
    outer loop
      vertex -5.29153 2.82838 0
      vertex -4.98882 3.33342 22
      vertex -4.98882 3.33342 0
    endloop
  endfacet
  facet normal -0.857728 0.514104 0
    outer loop
      vertex -4.98882 3.33342 22
      vertex -5.29153 2.82838 0
      vertex -5.29153 2.82838 22
    endloop
  endfacet
  facet normal -0.242979 -0.970032 0
    outer loop
      vertex -1.74171 -5.74164 0
      vertex -1.17054 -5.88471 22
      vertex -1.74171 -5.74164 22
    endloop
  endfacet
  facet normal -0.242979 -0.970032 -0
    outer loop
      vertex -1.17054 -5.88471 22
      vertex -1.74171 -5.74164 0
      vertex -1.17054 -5.88471 0
    endloop
  endfacet
  facet normal 0.857728 0.514104 0
    outer loop
      vertex 5.29153 2.82838 22
      vertex 4.98882 3.33342 0
      vertex 4.98882 3.33342 22
    endloop
  endfacet
  facet normal 0.857728 0.514104 0
    outer loop
      vertex 4.98882 3.33342 0
      vertex 5.29153 2.82838 22
      vertex 5.29153 2.82838 0
    endloop
  endfacet
  facet normal -0.998796 -0.049065 0
    outer loop
      vertex -5.97111 -0.588102 0
      vertex -6 0 22
      vertex -6 0 0
    endloop
  endfacet
  facet normal -0.998796 -0.049065 0
    outer loop
      vertex -6 0 22
      vertex -5.97111 -0.588102 0
      vertex -5.97111 -0.588102 22
    endloop
  endfacet
  facet normal 0.903989 0.427556 0
    outer loop
      vertex 5.54328 2.2961 22
      vertex 5.29153 2.82838 0
      vertex 5.29153 2.82838 22
    endloop
  endfacet
  facet normal 0.903989 0.427556 0
    outer loop
      vertex 5.29153 2.82838 0
      vertex 5.54328 2.2961 22
      vertex 5.54328 2.2961 0
    endloop
  endfacet
  facet normal 0.970032 -0.242979 0
    outer loop
      vertex 5.74164 -1.74171 22
      vertex 5.88471 -1.17054 0
      vertex 5.88471 -1.17054 22
    endloop
  endfacet
  facet normal 0.970032 -0.242979 0
    outer loop
      vertex 5.88471 -1.17054 0
      vertex 5.74164 -1.74171 22
      vertex 5.74164 -1.74171 0
    endloop
  endfacet
  facet normal -0.970032 0.242979 0
    outer loop
      vertex -5.88471 1.17054 0
      vertex -5.74164 1.74171 22
      vertex -5.74164 1.74171 0
    endloop
  endfacet
  facet normal -0.970032 0.242979 0
    outer loop
      vertex -5.74164 1.74171 22
      vertex -5.88471 1.17054 0
      vertex -5.88471 1.17054 22
    endloop
  endfacet
  facet normal -0.427556 -0.903989 0
    outer loop
      vertex -2.82838 -5.29153 0
      vertex -2.2961 -5.54328 22
      vertex -2.82838 -5.29153 22
    endloop
  endfacet
  facet normal -0.427556 -0.903989 -0
    outer loop
      vertex -2.2961 -5.54328 22
      vertex -2.82838 -5.29153 0
      vertex -2.2961 -5.54328 0
    endloop
  endfacet
  facet normal -0.970032 -0.242979 0
    outer loop
      vertex -5.74164 -1.74171 0
      vertex -5.88471 -1.17054 22
      vertex -5.88471 -1.17054 0
    endloop
  endfacet
  facet normal -0.970032 -0.242979 0
    outer loop
      vertex -5.88471 -1.17054 22
      vertex -5.74164 -1.74171 0
      vertex -5.74164 -1.74171 22
    endloop
  endfacet
  facet normal 0.336884 0.941546 -0
    outer loop
      vertex 2.2961 5.54328 0
      vertex 1.74171 5.74164 22
      vertex 2.2961 5.54328 22
    endloop
  endfacet
  facet normal 0.336884 0.941546 0
    outer loop
      vertex 1.74171 5.74164 22
      vertex 2.2961 5.54328 0
      vertex 1.74171 5.74164 0
    endloop
  endfacet
  facet normal 0.989176 -0.146736 0
    outer loop
      vertex 5.88471 -1.17054 22
      vertex 5.97111 -0.588102 0
      vertex 5.97111 -0.588102 22
    endloop
  endfacet
  facet normal 0.989176 -0.146736 0
    outer loop
      vertex 5.97111 -0.588102 0
      vertex 5.88471 -1.17054 22
      vertex 5.88471 -1.17054 0
    endloop
  endfacet
  facet normal -0.146736 0.989176 0
    outer loop
      vertex -0.588102 5.97111 0
      vertex -1.17054 5.88471 22
      vertex -0.588102 5.97111 22
    endloop
  endfacet
  facet normal -0.146736 0.989176 0
    outer loop
      vertex -1.17054 5.88471 22
      vertex -0.588102 5.97111 0
      vertex -1.17054 5.88471 0
    endloop
  endfacet
  facet normal 0.427556 -0.903989 0
    outer loop
      vertex 2.2961 -5.54328 0
      vertex 2.82838 -5.29153 22
      vertex 2.2961 -5.54328 22
    endloop
  endfacet
  facet normal 0.427556 -0.903989 0
    outer loop
      vertex 2.82838 -5.29153 22
      vertex 2.2961 -5.54328 0
      vertex 2.82838 -5.29153 0
    endloop
  endfacet
  facet normal -0.671558 0.740952 0
    outer loop
      vertex -3.80636 4.63806 0
      vertex -4.24264 4.24264 22
      vertex -3.80636 4.63806 22
    endloop
  endfacet
  facet normal -0.671558 0.740952 0
    outer loop
      vertex -4.24264 4.24264 22
      vertex -3.80636 4.63806 0
      vertex -4.24264 4.24264 0
    endloop
  endfacet
  facet normal 0 0 -1
    outer loop
      vertex 2.9 0 0
      vertex 6 0 0
      vertex 5.97111 -0.588102 0
    endloop
  endfacet
  facet normal 0 0 -1
    outer loop
      vertex 2.88603 -0.284249 0
      vertex 5.97111 -0.588102 0
      vertex 5.88471 -1.17054 0
    endloop
  endfacet
  facet normal 0 0 -1
    outer loop
      vertex 6 0 0
      vertex 2.9 0 0
      vertex 5.97111 0.588102 0
    endloop
  endfacet
  facet normal 0 0 -1
    outer loop
      vertex 2.84428 -0.565762 0
      vertex 5.88471 -1.17054 0
      vertex 5.74164 -1.74171 0
    endloop
  endfacet
  facet normal 0 0 -1
    outer loop
      vertex 2.88603 0.284249 0
      vertex 5.97111 0.588102 0
      vertex 2.9 0 0
    endloop
  endfacet
  facet normal 0 0 -1
    outer loop
      vertex 2.77513 -0.841825 0
      vertex 5.74164 -1.74171 0
      vertex 5.54328 -2.2961 0
    endloop
  endfacet
  facet normal -0 0 -1
    outer loop
      vertex 5.97111 0.588102 0
      vertex 2.88603 0.284249 0
      vertex 5.88471 1.17054 0
    endloop
  endfacet
  facet normal 0 0 -1
    outer loop
      vertex 2.67925 -1.10978 0
      vertex 5.54328 -2.2961 0
      vertex 5.29153 -2.82838 0
    endloop
  endfacet
  facet normal 0 0 -1
    outer loop
      vertex 2.84428 0.565762 0
      vertex 5.88471 1.17054 0
      vertex 2.88603 0.284249 0
    endloop
  endfacet
  facet normal 0 0 -1
    outer loop
      vertex 2.55757 -1.36705 0
      vertex 5.29153 -2.82838 0
      vertex 4.98882 -3.33342 0
    endloop
  endfacet
  facet normal -0 0 -1
    outer loop
      vertex 5.88471 1.17054 0
      vertex 2.84428 0.565762 0
      vertex 5.74164 1.74171 0
    endloop
  endfacet
  facet normal 0 0 -1
    outer loop
      vertex 2.41126 -1.61115 0
      vertex 4.98882 -3.33342 0
      vertex 4.63806 -3.80636 0
    endloop
  endfacet
  facet normal 0 0 -1
    outer loop
      vertex 2.77513 0.841825 0
      vertex 5.74164 1.74171 0
      vertex 2.84428 0.565762 0
    endloop
  endfacet
  facet normal 0 0 -1
    outer loop
      vertex 2.24173 -1.83974 0
      vertex 4.63806 -3.80636 0
      vertex 4.24264 -4.24264 0
    endloop
  endfacet
  facet normal -0 0 -1
    outer loop
      vertex 5.74164 1.74171 0
      vertex 2.77513 0.841825 0
      vertex 5.54328 2.2961 0
    endloop
  endfacet
  facet normal 0 0 -1
    outer loop
      vertex 2.05061 -2.05061 0
      vertex 4.24264 -4.24264 0
      vertex 3.80636 -4.63806 0
    endloop
  endfacet
  facet normal 0 0 -1
    outer loop
      vertex 2.67925 1.10978 0
      vertex 5.54328 2.2961 0
      vertex 2.77513 0.841825 0
    endloop
  endfacet
  facet normal 0 0 -1
    outer loop
      vertex 1.83974 -2.24173 0
      vertex 3.80636 -4.63806 0
      vertex 3.33342 -4.98882 0
    endloop
  endfacet
  facet normal -0 0 -1
    outer loop
      vertex 5.54328 2.2961 0
      vertex 2.67925 1.10978 0
      vertex 5.29153 2.82838 0
    endloop
  endfacet
  facet normal 0 0 -1
    outer loop
      vertex 2.55757 1.36705 0
      vertex 5.29153 2.82838 0
      vertex 2.67925 1.10978 0
    endloop
  endfacet
  facet normal 0 0 -1
    outer loop
      vertex 5.97111 -0.588102 0
      vertex 2.88603 -0.284249 0
      vertex 2.9 0 0
    endloop
  endfacet
  facet normal 0 0 -1
    outer loop
      vertex 5.88471 -1.17054 0
      vertex 2.84428 -0.565762 0
      vertex 2.88603 -0.284249 0
    endloop
  endfacet
  facet normal 0 0 -1
    outer loop
      vertex 1.61115 -2.41126 0
      vertex 3.33342 -4.98882 0
      vertex 2.82838 -5.29153 0
    endloop
  endfacet
  facet normal 0 0 -1
    outer loop
      vertex 5.74164 -1.74171 0
      vertex 2.77513 -0.841825 0
      vertex 2.84428 -0.565762 0
    endloop
  endfacet
  facet normal 0 0 -1
    outer loop
      vertex 5.54328 -2.2961 0
      vertex 2.67925 -1.10978 0
      vertex 2.77513 -0.841825 0
    endloop
  endfacet
  facet normal 0 0 -1
    outer loop
      vertex 5.29153 -2.82838 0
      vertex 2.55757 -1.36705 0
      vertex 2.67925 -1.10978 0
    endloop
  endfacet
  facet normal 0 0 -1
    outer loop
      vertex 4.98882 -3.33342 0
      vertex 2.41126 -1.61115 0
      vertex 2.55757 -1.36705 0
    endloop
  endfacet
  facet normal 0 0 -1
    outer loop
      vertex 1.36705 -2.55757 0
      vertex 2.82838 -5.29153 0
      vertex 2.2961 -5.54328 0
    endloop
  endfacet
  facet normal 0 0 -1
    outer loop
      vertex 4.63806 -3.80636 0
      vertex 2.24173 -1.83974 0
      vertex 2.41126 -1.61115 0
    endloop
  endfacet
  facet normal 0 0 -1
    outer loop
      vertex 4.24264 -4.24264 0
      vertex 2.05061 -2.05061 0
      vertex 2.24173 -1.83974 0
    endloop
  endfacet
  facet normal 0 0 -1
    outer loop
      vertex 3.80636 -4.63806 0
      vertex 1.83974 -2.24173 0
      vertex 2.05061 -2.05061 0
    endloop
  endfacet
  facet normal 0 0 -1
    outer loop
      vertex 1.10978 -2.67925 0
      vertex 2.2961 -5.54328 0
      vertex 1.74171 -5.74164 0
    endloop
  endfacet
  facet normal 0 0 -1
    outer loop
      vertex 3.33342 -4.98882 0
      vertex 1.61115 -2.41126 0
      vertex 1.83974 -2.24173 0
    endloop
  endfacet
  facet normal 0 0 -1
    outer loop
      vertex 2.82838 -5.29153 0
      vertex 1.36705 -2.55757 0
      vertex 1.61115 -2.41126 0
    endloop
  endfacet
  facet normal 0 0 -1
    outer loop
      vertex 0.841825 -2.77513 0
      vertex 1.74171 -5.74164 0
      vertex 1.17054 -5.88471 0
    endloop
  endfacet
  facet normal 0 0 -1
    outer loop
      vertex 2.2961 -5.54328 0
      vertex 1.10978 -2.67925 0
      vertex 1.36705 -2.55757 0
    endloop
  endfacet
  facet normal 0 0 -1
    outer loop
      vertex 1.74171 -5.74164 0
      vertex 0.841825 -2.77513 0
      vertex 1.10978 -2.67925 0
    endloop
  endfacet
  facet normal 0 0 -1
    outer loop
      vertex 0.565762 -2.84428 0
      vertex 1.17054 -5.88471 0
      vertex 0.588102 -5.97111 0
    endloop
  endfacet
  facet normal 0 0 -1
    outer loop
      vertex 1.17054 -5.88471 0
      vertex 0.565762 -2.84428 0
      vertex 0.841825 -2.77513 0
    endloop
  endfacet
  facet normal 0 0 -1
    outer loop
      vertex 0.588102 -5.97111 0
      vertex 0.284249 -2.88603 0
      vertex 0.565762 -2.84428 0
    endloop
  endfacet
  facet normal 0 0 -1
    outer loop
      vertex 0 -6 0
      vertex 0.284249 -2.88603 0
      vertex 0.588102 -5.97111 0
    endloop
  endfacet
  facet normal 0 0 -1
    outer loop
      vertex 0 -6 0
      vertex 0 -2.9 0
      vertex 0.284249 -2.88603 0
    endloop
  endfacet
  facet normal 0 0 -1
    outer loop
      vertex 0 -6 0
      vertex -0.284249 -2.88603 0
      vertex 0 -2.9 0
    endloop
  endfacet
  facet normal 0 0 -1
    outer loop
      vertex -0.588102 -5.97111 0
      vertex -0.284249 -2.88603 0
      vertex 0 -6 0
    endloop
  endfacet
  facet normal -0 0 -1
    outer loop
      vertex -0.284249 -2.88603 0
      vertex -0.588102 -5.97111 0
      vertex -0.565762 -2.84428 0
    endloop
  endfacet
  facet normal 0 0 -1
    outer loop
      vertex -1.17054 -5.88471 0
      vertex -0.565762 -2.84428 0
      vertex -0.588102 -5.97111 0
    endloop
  endfacet
  facet normal -0 0 -1
    outer loop
      vertex -0.565762 -2.84428 0
      vertex -1.17054 -5.88471 0
      vertex -0.841825 -2.77513 0
    endloop
  endfacet
  facet normal 0 0 -1
    outer loop
      vertex -1.74171 -5.74164 0
      vertex -0.841825 -2.77513 0
      vertex -1.17054 -5.88471 0
    endloop
  endfacet
  facet normal -0 0 -1
    outer loop
      vertex -0.841825 -2.77513 0
      vertex -1.74171 -5.74164 0
      vertex -1.10978 -2.67925 0
    endloop
  endfacet
  facet normal 0 0 -1
    outer loop
      vertex -2.2961 -5.54328 0
      vertex -1.10978 -2.67925 0
      vertex -1.74171 -5.74164 0
    endloop
  endfacet
  facet normal -0 0 -1
    outer loop
      vertex -1.10978 -2.67925 0
      vertex -2.2961 -5.54328 0
      vertex -1.36705 -2.55757 0
    endloop
  endfacet
  facet normal 0 0 -1
    outer loop
      vertex -2.82838 -5.29153 0
      vertex -1.36705 -2.55757 0
      vertex -2.2961 -5.54328 0
    endloop
  endfacet
  facet normal -0 0 -1
    outer loop
      vertex -1.36705 -2.55757 0
      vertex -2.82838 -5.29153 0
      vertex -1.61115 -2.41126 0
    endloop
  endfacet
  facet normal 0 0 -1
    outer loop
      vertex -3.33342 -4.98882 0
      vertex -1.61115 -2.41126 0
      vertex -2.82838 -5.29153 0
    endloop
  endfacet
  facet normal -0 0 -1
    outer loop
      vertex -1.61115 -2.41126 0
      vertex -3.33342 -4.98882 0
      vertex -1.83974 -2.24173 0
    endloop
  endfacet
  facet normal 0 0 -1
    outer loop
      vertex -3.80636 -4.63806 0
      vertex -1.83974 -2.24173 0
      vertex -3.33342 -4.98882 0
    endloop
  endfacet
  facet normal -0 0 -1
    outer loop
      vertex -1.83974 -2.24173 0
      vertex -3.80636 -4.63806 0
      vertex -2.05061 -2.05061 0
    endloop
  endfacet
  facet normal 0 0 -1
    outer loop
      vertex -4.24264 -4.24264 0
      vertex -2.05061 -2.05061 0
      vertex -3.80636 -4.63806 0
    endloop
  endfacet
  facet normal -0 0 -1
    outer loop
      vertex -2.05061 -2.05061 0
      vertex -4.24264 -4.24264 0
      vertex -2.24173 -1.83974 0
    endloop
  endfacet
  facet normal 0 0 -1
    outer loop
      vertex -4.63806 -3.80636 0
      vertex -2.24173 -1.83974 0
      vertex -4.24264 -4.24264 0
    endloop
  endfacet
  facet normal -0 0 -1
    outer loop
      vertex -2.24173 -1.83974 0
      vertex -4.63806 -3.80636 0
      vertex -2.41126 -1.61115 0
    endloop
  endfacet
  facet normal 0 0 -1
    outer loop
      vertex -4.98882 -3.33342 0
      vertex -2.41126 -1.61115 0
      vertex -4.63806 -3.80636 0
    endloop
  endfacet
  facet normal -0 0 -1
    outer loop
      vertex -2.41126 -1.61115 0
      vertex -4.98882 -3.33342 0
      vertex -2.55757 -1.36705 0
    endloop
  endfacet
  facet normal 0 0 -1
    outer loop
      vertex -5.29153 -2.82838 0
      vertex -2.55757 -1.36705 0
      vertex -4.98882 -3.33342 0
    endloop
  endfacet
  facet normal -0 0 -1
    outer loop
      vertex 5.29153 2.82838 0
      vertex 2.55757 1.36705 0
      vertex 4.98882 3.33342 0
    endloop
  endfacet
  facet normal 0 0 -1
    outer loop
      vertex 2.41126 1.61115 0
      vertex 4.98882 3.33342 0
      vertex 2.55757 1.36705 0
    endloop
  endfacet
  facet normal -0 0 -1
    outer loop
      vertex 4.98882 3.33342 0
      vertex 2.41126 1.61115 0
      vertex 4.63806 3.80636 0
    endloop
  endfacet
  facet normal 0 0 -1
    outer loop
      vertex 2.24173 1.83974 0
      vertex 4.63806 3.80636 0
      vertex 2.41126 1.61115 0
    endloop
  endfacet
  facet normal -0 0 -1
    outer loop
      vertex 4.63806 3.80636 0
      vertex 2.24173 1.83974 0
      vertex 4.24264 4.24264 0
    endloop
  endfacet
  facet normal 0 0 -1
    outer loop
      vertex 2.05061 2.05061 0
      vertex 4.24264 4.24264 0
      vertex 2.24173 1.83974 0
    endloop
  endfacet
  facet normal -0 0 -1
    outer loop
      vertex 4.24264 4.24264 0
      vertex 2.05061 2.05061 0
      vertex 3.80636 4.63806 0
    endloop
  endfacet
  facet normal 0 0 -1
    outer loop
      vertex 1.83974 2.24173 0
      vertex 3.80636 4.63806 0
      vertex 2.05061 2.05061 0
    endloop
  endfacet
  facet normal -0 0 -1
    outer loop
      vertex 3.80636 4.63806 0
      vertex 1.83974 2.24173 0
      vertex 3.33342 4.98882 0
    endloop
  endfacet
  facet normal 0 0 -1
    outer loop
      vertex 1.61115 2.41126 0
      vertex 3.33342 4.98882 0
      vertex 1.83974 2.24173 0
    endloop
  endfacet
  facet normal -0 0 -1
    outer loop
      vertex 3.33342 4.98882 0
      vertex 1.61115 2.41126 0
      vertex 2.82838 5.29153 0
    endloop
  endfacet
  facet normal 0 0 -1
    outer loop
      vertex 1.36705 2.55757 0
      vertex 2.82838 5.29153 0
      vertex 1.61115 2.41126 0
    endloop
  endfacet
  facet normal -0 0 -1
    outer loop
      vertex 2.82838 5.29153 0
      vertex 1.36705 2.55757 0
      vertex 2.2961 5.54328 0
    endloop
  endfacet
  facet normal 0 0 -1
    outer loop
      vertex 1.10978 2.67925 0
      vertex 2.2961 5.54328 0
      vertex 1.36705 2.55757 0
    endloop
  endfacet
  facet normal -0 0 -1
    outer loop
      vertex 2.2961 5.54328 0
      vertex 1.10978 2.67925 0
      vertex 1.74171 5.74164 0
    endloop
  endfacet
  facet normal 0 0 -1
    outer loop
      vertex 0.841825 2.77513 0
      vertex 1.74171 5.74164 0
      vertex 1.10978 2.67925 0
    endloop
  endfacet
  facet normal -0 0 -1
    outer loop
      vertex 1.74171 5.74164 0
      vertex 0.841825 2.77513 0
      vertex 1.17054 5.88471 0
    endloop
  endfacet
  facet normal 0 0 -1
    outer loop
      vertex 0.565762 2.84428 0
      vertex 1.17054 5.88471 0
      vertex 0.841825 2.77513 0
    endloop
  endfacet
  facet normal -0 0 -1
    outer loop
      vertex 1.17054 5.88471 0
      vertex 0.565762 2.84428 0
      vertex 0.588102 5.97111 0
    endloop
  endfacet
  facet normal 0 0 -1
    outer loop
      vertex 0.284249 2.88603 0
      vertex 0.588102 5.97111 0
      vertex 0.565762 2.84428 0
    endloop
  endfacet
  facet normal 0 0 -1
    outer loop
      vertex 0 2.9 0
      vertex 0.588102 5.97111 0
      vertex 0.284249 2.88603 0
    endloop
  endfacet
  facet normal 0 0 -1
    outer loop
      vertex 0 2.9 0
      vertex 0 6 0
      vertex 0.588102 5.97111 0
    endloop
  endfacet
  facet normal 0 0 -1
    outer loop
      vertex -0.284249 2.88603 0
      vertex 0 6 0
      vertex 0 2.9 0
    endloop
  endfacet
  facet normal 0 0 -1
    outer loop
      vertex -0.588102 5.97111 0
      vertex -0.284249 2.88603 0
      vertex -0.565762 2.84428 0
    endloop
  endfacet
  facet normal 0 0 -1
    outer loop
      vertex -0.284249 2.88603 0
      vertex -0.588102 5.97111 0
      vertex 0 6 0
    endloop
  endfacet
  facet normal 0 0 -1
    outer loop
      vertex -1.17054 5.88471 0
      vertex -0.565762 2.84428 0
      vertex -0.841825 2.77513 0
    endloop
  endfacet
  facet normal 0 0 -1
    outer loop
      vertex -1.74171 5.74164 0
      vertex -0.841825 2.77513 0
      vertex -1.10978 2.67925 0
    endloop
  endfacet
  facet normal 0 0 -1
    outer loop
      vertex -0.565762 2.84428 0
      vertex -1.17054 5.88471 0
      vertex -0.588102 5.97111 0
    endloop
  endfacet
  facet normal 0 0 -1
    outer loop
      vertex -2.2961 5.54328 0
      vertex -1.10978 2.67925 0
      vertex -1.36705 2.55757 0
    endloop
  endfacet
  facet normal 0 0 -1
    outer loop
      vertex -2.82838 5.29153 0
      vertex -1.36705 2.55757 0
      vertex -1.61115 2.41126 0
    endloop
  endfacet
  facet normal 0 0 -1
    outer loop
      vertex -0.841825 2.77513 0
      vertex -1.74171 5.74164 0
      vertex -1.17054 5.88471 0
    endloop
  endfacet
  facet normal 0 0 -1
    outer loop
      vertex -3.33342 4.98882 0
      vertex -1.61115 2.41126 0
      vertex -1.83974 2.24173 0
    endloop
  endfacet
  facet normal 0 0 -1
    outer loop
      vertex -3.80636 4.63806 0
      vertex -1.83974 2.24173 0
      vertex -2.05061 2.05061 0
    endloop
  endfacet
  facet normal 0 0 -1
    outer loop
      vertex -4.24264 4.24264 0
      vertex -2.05061 2.05061 0
      vertex -2.24173 1.83974 0
    endloop
  endfacet
  facet normal 0 0 -1
    outer loop
      vertex -1.10978 2.67925 0
      vertex -2.2961 5.54328 0
      vertex -1.74171 5.74164 0
    endloop
  endfacet
  facet normal 0 0 -1
    outer loop
      vertex -4.63806 3.80636 0
      vertex -2.24173 1.83974 0
      vertex -2.41126 1.61115 0
    endloop
  endfacet
  facet normal 0 0 -1
    outer loop
      vertex -4.98882 3.33342 0
      vertex -2.41126 1.61115 0
      vertex -2.55757 1.36705 0
    endloop
  endfacet
  facet normal 0 0 -1
    outer loop
      vertex -5.29153 2.82838 0
      vertex -2.55757 1.36705 0
      vertex -2.67925 1.10978 0
    endloop
  endfacet
  facet normal 0 0 -1
    outer loop
      vertex -5.54328 2.2961 0
      vertex -2.67925 1.10978 0
      vertex -2.77513 0.841825 0
    endloop
  endfacet
  facet normal 0 0 -1
    outer loop
      vertex -1.36705 2.55757 0
      vertex -2.82838 5.29153 0
      vertex -2.2961 5.54328 0
    endloop
  endfacet
  facet normal 0 0 -1
    outer loop
      vertex -5.74164 1.74171 0
      vertex -2.77513 0.841825 0
      vertex -2.84428 0.565762 0
    endloop
  endfacet
  facet normal 0 0 -1
    outer loop
      vertex -5.88471 1.17054 0
      vertex -2.84428 0.565762 0
      vertex -2.88603 0.284249 0
    endloop
  endfacet
  facet normal 0 0 -1
    outer loop
      vertex -5.97111 0.588102 0
      vertex -2.88603 0.284249 0
      vertex -2.9 0 0
    endloop
  endfacet
  facet normal -0 0 -1
    outer loop
      vertex -2.55757 -1.36705 0
      vertex -5.29153 -2.82838 0
      vertex -2.67925 -1.10978 0
    endloop
  endfacet
  facet normal 0 0 -1
    outer loop
      vertex -1.61115 2.41126 0
      vertex -3.33342 4.98882 0
      vertex -2.82838 5.29153 0
    endloop
  endfacet
  facet normal 0 0 -1
    outer loop
      vertex -5.54328 -2.2961 0
      vertex -2.67925 -1.10978 0
      vertex -5.29153 -2.82838 0
    endloop
  endfacet
  facet normal 0 0 -1
    outer loop
      vertex -1.83974 2.24173 0
      vertex -3.80636 4.63806 0
      vertex -3.33342 4.98882 0
    endloop
  endfacet
  facet normal -0 0 -1
    outer loop
      vertex -2.67925 -1.10978 0
      vertex -5.54328 -2.2961 0
      vertex -2.77513 -0.841825 0
    endloop
  endfacet
  facet normal 0 0 -1
    outer loop
      vertex -2.05061 2.05061 0
      vertex -4.24264 4.24264 0
      vertex -3.80636 4.63806 0
    endloop
  endfacet
  facet normal 0 0 -1
    outer loop
      vertex -5.74164 -1.74171 0
      vertex -2.77513 -0.841825 0
      vertex -5.54328 -2.2961 0
    endloop
  endfacet
  facet normal 0 0 -1
    outer loop
      vertex -2.24173 1.83974 0
      vertex -4.63806 3.80636 0
      vertex -4.24264 4.24264 0
    endloop
  endfacet
  facet normal -0 0 -1
    outer loop
      vertex -2.77513 -0.841825 0
      vertex -5.74164 -1.74171 0
      vertex -2.84428 -0.565762 0
    endloop
  endfacet
  facet normal 0 0 -1
    outer loop
      vertex -2.41126 1.61115 0
      vertex -4.98882 3.33342 0
      vertex -4.63806 3.80636 0
    endloop
  endfacet
  facet normal 0 0 -1
    outer loop
      vertex -5.88471 -1.17054 0
      vertex -2.84428 -0.565762 0
      vertex -5.74164 -1.74171 0
    endloop
  endfacet
  facet normal 0 0 -1
    outer loop
      vertex -2.55757 1.36705 0
      vertex -5.29153 2.82838 0
      vertex -4.98882 3.33342 0
    endloop
  endfacet
  facet normal -0 0 -1
    outer loop
      vertex -2.84428 -0.565762 0
      vertex -5.88471 -1.17054 0
      vertex -2.88603 -0.284249 0
    endloop
  endfacet
  facet normal 0 0 -1
    outer loop
      vertex -2.67925 1.10978 0
      vertex -5.54328 2.2961 0
      vertex -5.29153 2.82838 0
    endloop
  endfacet
  facet normal 0 0 -1
    outer loop
      vertex -5.97111 -0.588102 0
      vertex -2.88603 -0.284249 0
      vertex -5.88471 -1.17054 0
    endloop
  endfacet
  facet normal 0 0 -1
    outer loop
      vertex -2.77513 0.841825 0
      vertex -5.74164 1.74171 0
      vertex -5.54328 2.2961 0
    endloop
  endfacet
  facet normal -0 0 -1
    outer loop
      vertex -2.88603 -0.284249 0
      vertex -5.97111 -0.588102 0
      vertex -2.9 0 0
    endloop
  endfacet
  facet normal 0 0 -1
    outer loop
      vertex -2.84428 0.565762 0
      vertex -5.88471 1.17054 0
      vertex -5.74164 1.74171 0
    endloop
  endfacet
  facet normal 0 0 -1
    outer loop
      vertex -6 0 0
      vertex -2.9 0 0
      vertex -5.97111 -0.588102 0
    endloop
  endfacet
  facet normal 0 0 -1
    outer loop
      vertex -2.88603 0.284249 0
      vertex -5.97111 0.588102 0
      vertex -5.88471 1.17054 0
    endloop
  endfacet
  facet normal 0 0 -1
    outer loop
      vertex -2.9 0 0
      vertex -6 0 0
      vertex -5.97111 0.588102 0
    endloop
  endfacet
  facet normal -0.595703 0.803204 0
    outer loop
      vertex -3.33342 4.98882 0
      vertex -3.80636 4.63806 22
      vertex -3.33342 4.98882 22
    endloop
  endfacet
  facet normal -0.595703 0.803204 0
    outer loop
      vertex -3.80636 4.63806 22
      vertex -3.33342 4.98882 0
      vertex -3.80636 4.63806 0
    endloop
  endfacet
  facet normal 0.242979 0.970032 -0
    outer loop
      vertex 1.74171 5.74164 0
      vertex 1.17054 5.88471 22
      vertex 1.74171 5.74164 22
    endloop
  endfacet
  facet normal 0.242979 0.970032 0
    outer loop
      vertex 1.17054 5.88471 22
      vertex 1.74171 5.74164 0
      vertex 1.17054 5.88471 0
    endloop
  endfacet
  facet normal 0.998796 -0.049065 0
    outer loop
      vertex 5.97111 -0.588102 22
      vertex 6 0 0
      vertex 6 0 22
    endloop
  endfacet
  facet normal 0.998796 -0.049065 0
    outer loop
      vertex 6 0 0
      vertex 5.97111 -0.588102 22
      vertex 5.97111 -0.588102 0
    endloop
  endfacet
  facet normal -0.427556 0.903989 0
    outer loop
      vertex -2.2961 5.54328 0
      vertex -2.82838 5.29153 22
      vertex -2.2961 5.54328 22
    endloop
  endfacet
  facet normal -0.427556 0.903989 0
    outer loop
      vertex -2.82838 5.29153 22
      vertex -2.2961 5.54328 0
      vertex -2.82838 5.29153 0
    endloop
  endfacet
  facet normal -0.941546 -0.336884 0
    outer loop
      vertex -5.54328 -2.2961 0
      vertex -5.74164 -1.74171 22
      vertex -5.74164 -1.74171 0
    endloop
  endfacet
  facet normal -0.941546 -0.336884 0
    outer loop
      vertex -5.74164 -1.74171 22
      vertex -5.54328 -2.2961 0
      vertex -5.54328 -2.2961 22
    endloop
  endfacet
  facet normal 0.514104 0.857728 -0
    outer loop
      vertex 3.33342 4.98882 0
      vertex 2.82838 5.29153 22
      vertex 3.33342 4.98882 22
    endloop
  endfacet
  facet normal 0.514104 0.857728 0
    outer loop
      vertex 2.82838 5.29153 22
      vertex 3.33342 4.98882 0
      vertex 2.82838 5.29153 0
    endloop
  endfacet
  facet normal 0.595703 0.803204 -0
    outer loop
      vertex 3.80636 4.63806 0
      vertex 3.33342 4.98882 22
      vertex 3.80636 4.63806 22
    endloop
  endfacet
  facet normal 0.595703 0.803204 0
    outer loop
      vertex 3.33342 4.98882 22
      vertex 3.80636 4.63806 0
      vertex 3.33342 4.98882 0
    endloop
  endfacet
  facet normal 0.146736 -0.989176 0
    outer loop
      vertex 0.588102 -5.97111 0
      vertex 1.17054 -5.88471 22
      vertex 0.588102 -5.97111 22
    endloop
  endfacet
  facet normal 0.146736 -0.989176 0
    outer loop
      vertex 1.17054 -5.88471 22
      vertex 0.588102 -5.97111 0
      vertex 1.17054 -5.88471 0
    endloop
  endfacet
  facet normal 0.740952 -0.671558 0
    outer loop
      vertex 4.24264 -4.24264 22
      vertex 4.63806 -3.80636 0
      vertex 4.63806 -3.80636 22
    endloop
  endfacet
  facet normal 0.740952 -0.671558 0
    outer loop
      vertex 4.63806 -3.80636 0
      vertex 4.24264 -4.24264 22
      vertex 4.24264 -4.24264 0
    endloop
  endfacet
  facet normal 0.803204 -0.595703 0
    outer loop
      vertex 4.63806 -3.80636 22
      vertex 4.98882 -3.33342 0
      vertex 4.98882 -3.33342 22
    endloop
  endfacet
  facet normal 0.803204 -0.595703 0
    outer loop
      vertex 4.98882 -3.33342 0
      vertex 4.63806 -3.80636 22
      vertex 4.63806 -3.80636 0
    endloop
  endfacet
  facet normal 0.242979 -0.970032 0
    outer loop
      vertex 1.17054 -5.88471 0
      vertex 1.74171 -5.74164 22
      vertex 1.17054 -5.88471 22
    endloop
  endfacet
  facet normal 0.242979 -0.970032 0
    outer loop
      vertex 1.74171 -5.74164 22
      vertex 1.17054 -5.88471 0
      vertex 1.74171 -5.74164 0
    endloop
  endfacet
  facet normal 0.941546 -0.336884 0
    outer loop
      vertex 5.54328 -2.2961 22
      vertex 5.74164 -1.74171 0
      vertex 5.74164 -1.74171 22
    endloop
  endfacet
  facet normal 0.941546 -0.336884 0
    outer loop
      vertex 5.74164 -1.74171 0
      vertex 5.54328 -2.2961 22
      vertex 5.54328 -2.2961 0
    endloop
  endfacet
  facet normal -0.242979 0.970032 0
    outer loop
      vertex -1.17054 5.88471 0
      vertex -1.74171 5.74164 22
      vertex -1.17054 5.88471 22
    endloop
  endfacet
  facet normal -0.242979 0.970032 0
    outer loop
      vertex -1.74171 5.74164 22
      vertex -1.17054 5.88471 0
      vertex -1.74171 5.74164 0
    endloop
  endfacet
  facet normal -0.903989 -0.427556 0
    outer loop
      vertex -5.29153 -2.82838 0
      vertex -5.54328 -2.2961 22
      vertex -5.54328 -2.2961 0
    endloop
  endfacet
  facet normal -0.903989 -0.427556 0
    outer loop
      vertex -5.54328 -2.2961 22
      vertex -5.29153 -2.82838 0
      vertex -5.29153 -2.82838 22
    endloop
  endfacet
  facet normal -0.989176 0.146736 0
    outer loop
      vertex -5.97111 0.588102 0
      vertex -5.88471 1.17054 22
      vertex -5.88471 1.17054 0
    endloop
  endfacet
  facet normal -0.989176 0.146736 0
    outer loop
      vertex -5.88471 1.17054 22
      vertex -5.97111 0.588102 0
      vertex -5.97111 0.588102 22
    endloop
  endfacet
  facet normal 0.427556 0.903989 -0
    outer loop
      vertex 2.82838 5.29153 0
      vertex 2.2961 5.54328 22
      vertex 2.82838 5.29153 22
    endloop
  endfacet
  facet normal 0.427556 0.903989 0
    outer loop
      vertex 2.2961 5.54328 22
      vertex 2.82838 5.29153 0
      vertex 2.2961 5.54328 0
    endloop
  endfacet
  facet normal -0.740952 -0.671558 0
    outer loop
      vertex -4.24264 -4.24264 0
      vertex -4.63806 -3.80636 22
      vertex -4.63806 -3.80636 0
    endloop
  endfacet
  facet normal -0.740952 -0.671558 0
    outer loop
      vertex -4.63806 -3.80636 22
      vertex -4.24264 -4.24264 0
      vertex -4.24264 -4.24264 22
    endloop
  endfacet
  facet normal -0.857728 -0.514104 0
    outer loop
      vertex -4.98882 -3.33342 0
      vertex -5.29153 -2.82838 22
      vertex -5.29153 -2.82838 0
    endloop
  endfacet
  facet normal -0.857728 -0.514104 0
    outer loop
      vertex -5.29153 -2.82838 22
      vertex -4.98882 -3.33342 0
      vertex -4.98882 -3.33342 22
    endloop
  endfacet
  facet normal -0.336884 0.941546 0
    outer loop
      vertex -1.74171 5.74164 0
      vertex -2.2961 5.54328 22
      vertex -1.74171 5.74164 22
    endloop
  endfacet
  facet normal -0.336884 0.941546 0
    outer loop
      vertex -2.2961 5.54328 22
      vertex -1.74171 5.74164 0
      vertex -2.2961 5.54328 0
    endloop
  endfacet
  facet normal -0.514104 -0.857728 0
    outer loop
      vertex -3.33342 -4.98882 0
      vertex -2.82838 -5.29153 22
      vertex -3.33342 -4.98882 22
    endloop
  endfacet
  facet normal -0.514104 -0.857728 -0
    outer loop
      vertex -2.82838 -5.29153 22
      vertex -3.33342 -4.98882 0
      vertex -2.82838 -5.29153 0
    endloop
  endfacet
  facet normal -0.941546 0.336884 0
    outer loop
      vertex -5.74164 1.74171 0
      vertex -5.54328 2.2961 22
      vertex -5.54328 2.2961 0
    endloop
  endfacet
  facet normal -0.941546 0.336884 0
    outer loop
      vertex -5.54328 2.2961 22
      vertex -5.74164 1.74171 0
      vertex -5.74164 1.74171 22
    endloop
  endfacet
  facet normal 0.595703 -0.803204 0
    outer loop
      vertex 3.33342 -4.98882 0
      vertex 3.80636 -4.63806 22
      vertex 3.33342 -4.98882 22
    endloop
  endfacet
  facet normal 0.595703 -0.803204 0
    outer loop
      vertex 3.80636 -4.63806 22
      vertex 3.33342 -4.98882 0
      vertex 3.80636 -4.63806 0
    endloop
  endfacet
  facet normal 0.740952 0.671558 0
    outer loop
      vertex 4.63806 3.80636 22
      vertex 4.24264 4.24264 0
      vertex 4.24264 4.24264 22
    endloop
  endfacet
  facet normal 0.740952 0.671558 0
    outer loop
      vertex 4.24264 4.24264 0
      vertex 4.63806 3.80636 22
      vertex 4.63806 3.80636 0
    endloop
  endfacet
  facet normal -0.803204 -0.595703 0
    outer loop
      vertex -4.63806 -3.80636 0
      vertex -4.98882 -3.33342 22
      vertex -4.98882 -3.33342 0
    endloop
  endfacet
  facet normal -0.803204 -0.595703 0
    outer loop
      vertex -4.98882 -3.33342 22
      vertex -4.63806 -3.80636 0
      vertex -4.63806 -3.80636 22
    endloop
  endfacet
  facet normal -0.514104 0.857728 0
    outer loop
      vertex -2.82838 5.29153 0
      vertex -3.33342 4.98882 22
      vertex -2.82838 5.29153 22
    endloop
  endfacet
  facet normal -0.514104 0.857728 0
    outer loop
      vertex -3.33342 4.98882 22
      vertex -2.82838 5.29153 0
      vertex -3.33342 4.98882 0
    endloop
  endfacet
  facet normal -0.989176 -0.146736 0
    outer loop
      vertex -5.88471 -1.17054 0
      vertex -5.97111 -0.588102 22
      vertex -5.97111 -0.588102 0
    endloop
  endfacet
  facet normal -0.989176 -0.146736 0
    outer loop
      vertex -5.97111 -0.588102 22
      vertex -5.88471 -1.17054 0
      vertex -5.88471 -1.17054 22
    endloop
  endfacet
  facet normal -0.903989 0.427556 0
    outer loop
      vertex -5.54328 2.2961 0
      vertex -5.29153 2.82838 22
      vertex -5.29153 2.82838 0
    endloop
  endfacet
  facet normal -0.903989 0.427556 0
    outer loop
      vertex -5.29153 2.82838 22
      vertex -5.54328 2.2961 0
      vertex -5.54328 2.2961 22
    endloop
  endfacet
  facet normal 0.514104 -0.857728 0
    outer loop
      vertex 2.82838 -5.29153 0
      vertex 3.33342 -4.98882 22
      vertex 2.82838 -5.29153 22
    endloop
  endfacet
  facet normal 0.514104 -0.857728 0
    outer loop
      vertex 3.33342 -4.98882 22
      vertex 2.82838 -5.29153 0
      vertex 3.33342 -4.98882 0
    endloop
  endfacet
  facet normal -0.671558 -0.740952 0
    outer loop
      vertex -4.24264 -4.24264 0
      vertex -3.80636 -4.63806 22
      vertex -4.24264 -4.24264 22
    endloop
  endfacet
  facet normal -0.671558 -0.740952 -0
    outer loop
      vertex -3.80636 -4.63806 22
      vertex -4.24264 -4.24264 0
      vertex -3.80636 -4.63806 0
    endloop
  endfacet
  facet normal -0.803204 0.595703 0
    outer loop
      vertex -4.98882 3.33342 0
      vertex -4.63806 3.80636 22
      vertex -4.63806 3.80636 0
    endloop
  endfacet
  facet normal -0.803204 0.595703 0
    outer loop
      vertex -4.63806 3.80636 22
      vertex -4.98882 3.33342 0
      vertex -4.98882 3.33342 22
    endloop
  endfacet
  facet normal -0.049065 -0.998796 0
    outer loop
      vertex -0.588102 -5.97111 0
      vertex 0 -6 22
      vertex -0.588102 -5.97111 22
    endloop
  endfacet
  facet normal -0.049065 -0.998796 -0
    outer loop
      vertex 0 -6 22
      vertex -0.588102 -5.97111 0
      vertex 0 -6 0
    endloop
  endfacet
  facet normal 0 0 1
    outer loop
      vertex 2.9 0 22
      vertex 6 0 22
      vertex 5.97111 0.588102 22
    endloop
  endfacet
  facet normal 0 0 1
    outer loop
      vertex 2.88603 0.284249 22
      vertex 5.97111 0.588102 22
      vertex 5.88471 1.17054 22
    endloop
  endfacet
  facet normal 0 0 1
    outer loop
      vertex 6 0 22
      vertex 2.9 0 22
      vertex 5.97111 -0.588102 22
    endloop
  endfacet
  facet normal 0 0 1
    outer loop
      vertex 2.84428 0.565762 22
      vertex 5.88471 1.17054 22
      vertex 5.74164 1.74171 22
    endloop
  endfacet
  facet normal -0 0 1
    outer loop
      vertex 2.88603 -0.284249 22
      vertex 5.97111 -0.588102 22
      vertex 2.9 0 22
    endloop
  endfacet
  facet normal 0 0 1
    outer loop
      vertex 2.77513 0.841825 22
      vertex 5.74164 1.74171 22
      vertex 5.54328 2.2961 22
    endloop
  endfacet
  facet normal 0 0 1
    outer loop
      vertex 5.97111 -0.588102 22
      vertex 2.88603 -0.284249 22
      vertex 5.88471 -1.17054 22
    endloop
  endfacet
  facet normal 0 0 1
    outer loop
      vertex 2.67925 1.10978 22
      vertex 5.54328 2.2961 22
      vertex 5.29153 2.82838 22
    endloop
  endfacet
  facet normal -0 0 1
    outer loop
      vertex 2.84428 -0.565762 22
      vertex 5.88471 -1.17054 22
      vertex 2.88603 -0.284249 22
    endloop
  endfacet
  facet normal 0 0 1
    outer loop
      vertex 2.55757 1.36705 22
      vertex 5.29153 2.82838 22
      vertex 4.98882 3.33342 22
    endloop
  endfacet
  facet normal 0 0 1
    outer loop
      vertex 5.88471 -1.17054 22
      vertex 2.84428 -0.565762 22
      vertex 5.74164 -1.74171 22
    endloop
  endfacet
  facet normal 0 0 1
    outer loop
      vertex 2.41126 1.61115 22
      vertex 4.98882 3.33342 22
      vertex 4.63806 3.80636 22
    endloop
  endfacet
  facet normal -0 0 1
    outer loop
      vertex 2.77513 -0.841825 22
      vertex 5.74164 -1.74171 22
      vertex 2.84428 -0.565762 22
    endloop
  endfacet
  facet normal 0 0 1
    outer loop
      vertex 2.24173 1.83974 22
      vertex 4.63806 3.80636 22
      vertex 4.24264 4.24264 22
    endloop
  endfacet
  facet normal 0 0 1
    outer loop
      vertex 5.74164 -1.74171 22
      vertex 2.77513 -0.841825 22
      vertex 5.54328 -2.2961 22
    endloop
  endfacet
  facet normal 0 0 1
    outer loop
      vertex 2.05061 2.05061 22
      vertex 4.24264 4.24264 22
      vertex 3.80636 4.63806 22
    endloop
  endfacet
  facet normal -0 0 1
    outer loop
      vertex 2.67925 -1.10978 22
      vertex 5.54328 -2.2961 22
      vertex 2.77513 -0.841825 22
    endloop
  endfacet
  facet normal 0 0 1
    outer loop
      vertex 1.83974 2.24173 22
      vertex 3.80636 4.63806 22
      vertex 3.33342 4.98882 22
    endloop
  endfacet
  facet normal 0 0 1
    outer loop
      vertex 5.54328 -2.2961 22
      vertex 2.67925 -1.10978 22
      vertex 5.29153 -2.82838 22
    endloop
  endfacet
  facet normal -0 0 1
    outer loop
      vertex 2.55757 -1.36705 22
      vertex 5.29153 -2.82838 22
      vertex 2.67925 -1.10978 22
    endloop
  endfacet
  facet normal 0 0 1
    outer loop
      vertex 5.97111 0.588102 22
      vertex 2.88603 0.284249 22
      vertex 2.9 0 22
    endloop
  endfacet
  facet normal 0 0 1
    outer loop
      vertex 5.88471 1.17054 22
      vertex 2.84428 0.565762 22
      vertex 2.88603 0.284249 22
    endloop
  endfacet
  facet normal 0 0 1
    outer loop
      vertex 1.61115 2.41126 22
      vertex 3.33342 4.98882 22
      vertex 2.82838 5.29153 22
    endloop
  endfacet
  facet normal 0 0 1
    outer loop
      vertex 5.74164 1.74171 22
      vertex 2.77513 0.841825 22
      vertex 2.84428 0.565762 22
    endloop
  endfacet
  facet normal 0 0 1
    outer loop
      vertex 5.54328 2.2961 22
      vertex 2.67925 1.10978 22
      vertex 2.77513 0.841825 22
    endloop
  endfacet
  facet normal 0 0 1
    outer loop
      vertex 5.29153 2.82838 22
      vertex 2.55757 1.36705 22
      vertex 2.67925 1.10978 22
    endloop
  endfacet
  facet normal 0 0 1
    outer loop
      vertex 4.98882 3.33342 22
      vertex 2.41126 1.61115 22
      vertex 2.55757 1.36705 22
    endloop
  endfacet
  facet normal 0 0 1
    outer loop
      vertex 1.36705 2.55757 22
      vertex 2.82838 5.29153 22
      vertex 2.2961 5.54328 22
    endloop
  endfacet
  facet normal 0 0 1
    outer loop
      vertex 4.63806 3.80636 22
      vertex 2.24173 1.83974 22
      vertex 2.41126 1.61115 22
    endloop
  endfacet
  facet normal 0 0 1
    outer loop
      vertex 4.24264 4.24264 22
      vertex 2.05061 2.05061 22
      vertex 2.24173 1.83974 22
    endloop
  endfacet
  facet normal 0 0 1
    outer loop
      vertex 3.80636 4.63806 22
      vertex 1.83974 2.24173 22
      vertex 2.05061 2.05061 22
    endloop
  endfacet
  facet normal 0 0 1
    outer loop
      vertex 1.10978 2.67925 22
      vertex 2.2961 5.54328 22
      vertex 1.74171 5.74164 22
    endloop
  endfacet
  facet normal 0 0 1
    outer loop
      vertex 3.33342 4.98882 22
      vertex 1.61115 2.41126 22
      vertex 1.83974 2.24173 22
    endloop
  endfacet
  facet normal 0 0 1
    outer loop
      vertex 2.82838 5.29153 22
      vertex 1.36705 2.55757 22
      vertex 1.61115 2.41126 22
    endloop
  endfacet
  facet normal 0 0 1
    outer loop
      vertex 0.841825 2.77513 22
      vertex 1.74171 5.74164 22
      vertex 1.17054 5.88471 22
    endloop
  endfacet
  facet normal 0 0 1
    outer loop
      vertex 2.2961 5.54328 22
      vertex 1.10978 2.67925 22
      vertex 1.36705 2.55757 22
    endloop
  endfacet
  facet normal 0 0 1
    outer loop
      vertex 1.74171 5.74164 22
      vertex 0.841825 2.77513 22
      vertex 1.10978 2.67925 22
    endloop
  endfacet
  facet normal 0 0 1
    outer loop
      vertex 0.565762 2.84428 22
      vertex 1.17054 5.88471 22
      vertex 0.588102 5.97111 22
    endloop
  endfacet
  facet normal 0 0 1
    outer loop
      vertex 1.17054 5.88471 22
      vertex 0.565762 2.84428 22
      vertex 0.841825 2.77513 22
    endloop
  endfacet
  facet normal 0 0 1
    outer loop
      vertex 0.588102 5.97111 22
      vertex 0.284249 2.88603 22
      vertex 0.565762 2.84428 22
    endloop
  endfacet
  facet normal 0 0 1
    outer loop
      vertex 0 6 22
      vertex 0.284249 2.88603 22
      vertex 0.588102 5.97111 22
    endloop
  endfacet
  facet normal 0 0 1
    outer loop
      vertex 0 6 22
      vertex 0 2.9 22
      vertex 0.284249 2.88603 22
    endloop
  endfacet
  facet normal 0 0 1
    outer loop
      vertex 0 6 22
      vertex -0.284249 2.88603 22
      vertex 0 2.9 22
    endloop
  endfacet
  facet normal -0 0 1
    outer loop
      vertex -0.588102 5.97111 22
      vertex -0.284249 2.88603 22
      vertex 0 6 22
    endloop
  endfacet
  facet normal 0 0 1
    outer loop
      vertex -0.284249 2.88603 22
      vertex -0.588102 5.97111 22
      vertex -0.565762 2.84428 22
    endloop
  endfacet
  facet normal -0 0 1
    outer loop
      vertex -1.17054 5.88471 22
      vertex -0.565762 2.84428 22
      vertex -0.588102 5.97111 22
    endloop
  endfacet
  facet normal 0 0 1
    outer loop
      vertex -0.565762 2.84428 22
      vertex -1.17054 5.88471 22
      vertex -0.841825 2.77513 22
    endloop
  endfacet
  facet normal -0 0 1
    outer loop
      vertex -1.74171 5.74164 22
      vertex -0.841825 2.77513 22
      vertex -1.17054 5.88471 22
    endloop
  endfacet
  facet normal 0 0 1
    outer loop
      vertex -0.841825 2.77513 22
      vertex -1.74171 5.74164 22
      vertex -1.10978 2.67925 22
    endloop
  endfacet
  facet normal -0 0 1
    outer loop
      vertex -2.2961 5.54328 22
      vertex -1.10978 2.67925 22
      vertex -1.74171 5.74164 22
    endloop
  endfacet
  facet normal 0 0 1
    outer loop
      vertex -1.10978 2.67925 22
      vertex -2.2961 5.54328 22
      vertex -1.36705 2.55757 22
    endloop
  endfacet
  facet normal -0 0 1
    outer loop
      vertex -2.82838 5.29153 22
      vertex -1.36705 2.55757 22
      vertex -2.2961 5.54328 22
    endloop
  endfacet
  facet normal 0 0 1
    outer loop
      vertex -1.36705 2.55757 22
      vertex -2.82838 5.29153 22
      vertex -1.61115 2.41126 22
    endloop
  endfacet
  facet normal -0 0 1
    outer loop
      vertex -3.33342 4.98882 22
      vertex -1.61115 2.41126 22
      vertex -2.82838 5.29153 22
    endloop
  endfacet
  facet normal 0 0 1
    outer loop
      vertex -1.61115 2.41126 22
      vertex -3.33342 4.98882 22
      vertex -1.83974 2.24173 22
    endloop
  endfacet
  facet normal -0 0 1
    outer loop
      vertex -3.80636 4.63806 22
      vertex -1.83974 2.24173 22
      vertex -3.33342 4.98882 22
    endloop
  endfacet
  facet normal 0 0 1
    outer loop
      vertex -1.83974 2.24173 22
      vertex -3.80636 4.63806 22
      vertex -2.05061 2.05061 22
    endloop
  endfacet
  facet normal -0 0 1
    outer loop
      vertex -4.24264 4.24264 22
      vertex -2.05061 2.05061 22
      vertex -3.80636 4.63806 22
    endloop
  endfacet
  facet normal 0 0 1
    outer loop
      vertex -2.05061 2.05061 22
      vertex -4.24264 4.24264 22
      vertex -2.24173 1.83974 22
    endloop
  endfacet
  facet normal -0 0 1
    outer loop
      vertex -4.63806 3.80636 22
      vertex -2.24173 1.83974 22
      vertex -4.24264 4.24264 22
    endloop
  endfacet
  facet normal 0 0 1
    outer loop
      vertex -2.24173 1.83974 22
      vertex -4.63806 3.80636 22
      vertex -2.41126 1.61115 22
    endloop
  endfacet
  facet normal -0 0 1
    outer loop
      vertex -4.98882 3.33342 22
      vertex -2.41126 1.61115 22
      vertex -4.63806 3.80636 22
    endloop
  endfacet
  facet normal 0 0 1
    outer loop
      vertex -2.41126 1.61115 22
      vertex -4.98882 3.33342 22
      vertex -2.55757 1.36705 22
    endloop
  endfacet
  facet normal -0 0 1
    outer loop
      vertex -5.29153 2.82838 22
      vertex -2.55757 1.36705 22
      vertex -4.98882 3.33342 22
    endloop
  endfacet
  facet normal 0 0 1
    outer loop
      vertex 5.29153 -2.82838 22
      vertex 2.55757 -1.36705 22
      vertex 4.98882 -3.33342 22
    endloop
  endfacet
  facet normal -0 0 1
    outer loop
      vertex 2.41126 -1.61115 22
      vertex 4.98882 -3.33342 22
      vertex 2.55757 -1.36705 22
    endloop
  endfacet
  facet normal 0 0 1
    outer loop
      vertex 4.98882 -3.33342 22
      vertex 2.41126 -1.61115 22
      vertex 4.63806 -3.80636 22
    endloop
  endfacet
  facet normal -0 0 1
    outer loop
      vertex 2.24173 -1.83974 22
      vertex 4.63806 -3.80636 22
      vertex 2.41126 -1.61115 22
    endloop
  endfacet
  facet normal 0 0 1
    outer loop
      vertex 4.63806 -3.80636 22
      vertex 2.24173 -1.83974 22
      vertex 4.24264 -4.24264 22
    endloop
  endfacet
  facet normal -0 0 1
    outer loop
      vertex 2.05061 -2.05061 22
      vertex 4.24264 -4.24264 22
      vertex 2.24173 -1.83974 22
    endloop
  endfacet
  facet normal 0 0 1
    outer loop
      vertex 4.24264 -4.24264 22
      vertex 2.05061 -2.05061 22
      vertex 3.80636 -4.63806 22
    endloop
  endfacet
  facet normal -0 0 1
    outer loop
      vertex 1.83974 -2.24173 22
      vertex 3.80636 -4.63806 22
      vertex 2.05061 -2.05061 22
    endloop
  endfacet
  facet normal 0 0 1
    outer loop
      vertex 3.80636 -4.63806 22
      vertex 1.83974 -2.24173 22
      vertex 3.33342 -4.98882 22
    endloop
  endfacet
  facet normal -0 0 1
    outer loop
      vertex 1.61115 -2.41126 22
      vertex 3.33342 -4.98882 22
      vertex 1.83974 -2.24173 22
    endloop
  endfacet
  facet normal 0 0 1
    outer loop
      vertex 3.33342 -4.98882 22
      vertex 1.61115 -2.41126 22
      vertex 2.82838 -5.29153 22
    endloop
  endfacet
  facet normal -0 0 1
    outer loop
      vertex 1.36705 -2.55757 22
      vertex 2.82838 -5.29153 22
      vertex 1.61115 -2.41126 22
    endloop
  endfacet
  facet normal 0 0 1
    outer loop
      vertex 2.82838 -5.29153 22
      vertex 1.36705 -2.55757 22
      vertex 2.2961 -5.54328 22
    endloop
  endfacet
  facet normal -0 0 1
    outer loop
      vertex 1.10978 -2.67925 22
      vertex 2.2961 -5.54328 22
      vertex 1.36705 -2.55757 22
    endloop
  endfacet
  facet normal 0 0 1
    outer loop
      vertex 2.2961 -5.54328 22
      vertex 1.10978 -2.67925 22
      vertex 1.74171 -5.74164 22
    endloop
  endfacet
  facet normal -0 0 1
    outer loop
      vertex 0.841825 -2.77513 22
      vertex 1.74171 -5.74164 22
      vertex 1.10978 -2.67925 22
    endloop
  endfacet
  facet normal 0 0 1
    outer loop
      vertex 1.74171 -5.74164 22
      vertex 0.841825 -2.77513 22
      vertex 1.17054 -5.88471 22
    endloop
  endfacet
  facet normal -0 0 1
    outer loop
      vertex 0.565762 -2.84428 22
      vertex 1.17054 -5.88471 22
      vertex 0.841825 -2.77513 22
    endloop
  endfacet
  facet normal 0 0 1
    outer loop
      vertex 1.17054 -5.88471 22
      vertex 0.565762 -2.84428 22
      vertex 0.588102 -5.97111 22
    endloop
  endfacet
  facet normal -0 0 1
    outer loop
      vertex 0.284249 -2.88603 22
      vertex 0.588102 -5.97111 22
      vertex 0.565762 -2.84428 22
    endloop
  endfacet
  facet normal -0 0 1
    outer loop
      vertex 0 -2.9 22
      vertex 0.588102 -5.97111 22
      vertex 0.284249 -2.88603 22
    endloop
  endfacet
  facet normal 0 0 1
    outer loop
      vertex 0 -2.9 22
      vertex 0 -6 22
      vertex 0.588102 -5.97111 22
    endloop
  endfacet
  facet normal 0 0 1
    outer loop
      vertex -0.284249 -2.88603 22
      vertex 0 -6 22
      vertex 0 -2.9 22
    endloop
  endfacet
  facet normal 0 0 1
    outer loop
      vertex -0.588102 -5.97111 22
      vertex -0.284249 -2.88603 22
      vertex -0.565762 -2.84428 22
    endloop
  endfacet
  facet normal 0 0 1
    outer loop
      vertex -0.284249 -2.88603 22
      vertex -0.588102 -5.97111 22
      vertex 0 -6 22
    endloop
  endfacet
  facet normal 0 0 1
    outer loop
      vertex -1.17054 -5.88471 22
      vertex -0.565762 -2.84428 22
      vertex -0.841825 -2.77513 22
    endloop
  endfacet
  facet normal 0 0 1
    outer loop
      vertex -1.74171 -5.74164 22
      vertex -0.841825 -2.77513 22
      vertex -1.10978 -2.67925 22
    endloop
  endfacet
  facet normal 0 0 1
    outer loop
      vertex -0.565762 -2.84428 22
      vertex -1.17054 -5.88471 22
      vertex -0.588102 -5.97111 22
    endloop
  endfacet
  facet normal 0 0 1
    outer loop
      vertex -2.2961 -5.54328 22
      vertex -1.10978 -2.67925 22
      vertex -1.36705 -2.55757 22
    endloop
  endfacet
  facet normal 0 0 1
    outer loop
      vertex -2.82838 -5.29153 22
      vertex -1.36705 -2.55757 22
      vertex -1.61115 -2.41126 22
    endloop
  endfacet
  facet normal 0 0 1
    outer loop
      vertex -0.841825 -2.77513 22
      vertex -1.74171 -5.74164 22
      vertex -1.17054 -5.88471 22
    endloop
  endfacet
  facet normal 0 0 1
    outer loop
      vertex -3.33342 -4.98882 22
      vertex -1.61115 -2.41126 22
      vertex -1.83974 -2.24173 22
    endloop
  endfacet
  facet normal 0 0 1
    outer loop
      vertex -3.80636 -4.63806 22
      vertex -1.83974 -2.24173 22
      vertex -2.05061 -2.05061 22
    endloop
  endfacet
  facet normal 0 0 1
    outer loop
      vertex -4.24264 -4.24264 22
      vertex -2.05061 -2.05061 22
      vertex -2.24173 -1.83974 22
    endloop
  endfacet
  facet normal 0 0 1
    outer loop
      vertex -1.10978 -2.67925 22
      vertex -2.2961 -5.54328 22
      vertex -1.74171 -5.74164 22
    endloop
  endfacet
  facet normal 0 0 1
    outer loop
      vertex -4.63806 -3.80636 22
      vertex -2.24173 -1.83974 22
      vertex -2.41126 -1.61115 22
    endloop
  endfacet
  facet normal 0 0 1
    outer loop
      vertex -4.98882 -3.33342 22
      vertex -2.41126 -1.61115 22
      vertex -2.55757 -1.36705 22
    endloop
  endfacet
  facet normal 0 0 1
    outer loop
      vertex -5.29153 -2.82838 22
      vertex -2.55757 -1.36705 22
      vertex -2.67925 -1.10978 22
    endloop
  endfacet
  facet normal 0 0 1
    outer loop
      vertex -5.54328 -2.2961 22
      vertex -2.67925 -1.10978 22
      vertex -2.77513 -0.841825 22
    endloop
  endfacet
  facet normal 0 0 1
    outer loop
      vertex -1.36705 -2.55757 22
      vertex -2.82838 -5.29153 22
      vertex -2.2961 -5.54328 22
    endloop
  endfacet
  facet normal 0 0 1
    outer loop
      vertex -5.74164 -1.74171 22
      vertex -2.77513 -0.841825 22
      vertex -2.84428 -0.565762 22
    endloop
  endfacet
  facet normal 0 0 1
    outer loop
      vertex -5.88471 -1.17054 22
      vertex -2.84428 -0.565762 22
      vertex -2.88603 -0.284249 22
    endloop
  endfacet
  facet normal 0 0 1
    outer loop
      vertex -5.97111 -0.588102 22
      vertex -2.88603 -0.284249 22
      vertex -2.9 0 22
    endloop
  endfacet
  facet normal 0 0 1
    outer loop
      vertex -2.55757 1.36705 22
      vertex -5.29153 2.82838 22
      vertex -2.67925 1.10978 22
    endloop
  endfacet
  facet normal 0 0 1
    outer loop
      vertex -1.61115 -2.41126 22
      vertex -3.33342 -4.98882 22
      vertex -2.82838 -5.29153 22
    endloop
  endfacet
  facet normal -0 0 1
    outer loop
      vertex -5.54328 2.2961 22
      vertex -2.67925 1.10978 22
      vertex -5.29153 2.82838 22
    endloop
  endfacet
  facet normal 0 0 1
    outer loop
      vertex -1.83974 -2.24173 22
      vertex -3.80636 -4.63806 22
      vertex -3.33342 -4.98882 22
    endloop
  endfacet
  facet normal 0 0 1
    outer loop
      vertex -2.67925 1.10978 22
      vertex -5.54328 2.2961 22
      vertex -2.77513 0.841825 22
    endloop
  endfacet
  facet normal 0 0 1
    outer loop
      vertex -2.05061 -2.05061 22
      vertex -4.24264 -4.24264 22
      vertex -3.80636 -4.63806 22
    endloop
  endfacet
  facet normal -0 0 1
    outer loop
      vertex -5.74164 1.74171 22
      vertex -2.77513 0.841825 22
      vertex -5.54328 2.2961 22
    endloop
  endfacet
  facet normal 0 0 1
    outer loop
      vertex -2.24173 -1.83974 22
      vertex -4.63806 -3.80636 22
      vertex -4.24264 -4.24264 22
    endloop
  endfacet
  facet normal 0 0 1
    outer loop
      vertex -2.77513 0.841825 22
      vertex -5.74164 1.74171 22
      vertex -2.84428 0.565762 22
    endloop
  endfacet
  facet normal 0 0 1
    outer loop
      vertex -2.41126 -1.61115 22
      vertex -4.98882 -3.33342 22
      vertex -4.63806 -3.80636 22
    endloop
  endfacet
  facet normal -0 0 1
    outer loop
      vertex -5.88471 1.17054 22
      vertex -2.84428 0.565762 22
      vertex -5.74164 1.74171 22
    endloop
  endfacet
  facet normal 0 0 1
    outer loop
      vertex -2.55757 -1.36705 22
      vertex -5.29153 -2.82838 22
      vertex -4.98882 -3.33342 22
    endloop
  endfacet
  facet normal 0 0 1
    outer loop
      vertex -2.84428 0.565762 22
      vertex -5.88471 1.17054 22
      vertex -2.88603 0.284249 22
    endloop
  endfacet
  facet normal 0 0 1
    outer loop
      vertex -2.67925 -1.10978 22
      vertex -5.54328 -2.2961 22
      vertex -5.29153 -2.82838 22
    endloop
  endfacet
  facet normal -0 0 1
    outer loop
      vertex -5.97111 0.588102 22
      vertex -2.88603 0.284249 22
      vertex -5.88471 1.17054 22
    endloop
  endfacet
  facet normal 0 0 1
    outer loop
      vertex -2.77513 -0.841825 22
      vertex -5.74164 -1.74171 22
      vertex -5.54328 -2.2961 22
    endloop
  endfacet
  facet normal 0 0 1
    outer loop
      vertex -2.88603 0.284249 22
      vertex -5.97111 0.588102 22
      vertex -2.9 0 22
    endloop
  endfacet
  facet normal 0 0 1
    outer loop
      vertex -2.84428 -0.565762 22
      vertex -5.88471 -1.17054 22
      vertex -5.74164 -1.74171 22
    endloop
  endfacet
  facet normal 0 0 1
    outer loop
      vertex -6 0 22
      vertex -2.9 0 22
      vertex -5.97111 0.588102 22
    endloop
  endfacet
  facet normal 0 0 1
    outer loop
      vertex -2.88603 -0.284249 22
      vertex -5.97111 -0.588102 22
      vertex -5.88471 -1.17054 22
    endloop
  endfacet
  facet normal 0 0 1
    outer loop
      vertex -2.9 0 22
      vertex -6 0 22
      vertex -5.97111 -0.588102 22
    endloop
  endfacet
  facet normal -0.998796 0.049065 0
    outer loop
      vertex -6 0 0
      vertex -5.97111 0.588102 22
      vertex -5.97111 0.588102 0
    endloop
  endfacet
  facet normal -0.998796 0.049065 0
    outer loop
      vertex -5.97111 0.588102 22
      vertex -6 0 0
      vertex -6 0 22
    endloop
  endfacet
  facet normal -0.336884 -0.941546 0
    outer loop
      vertex -2.2961 -5.54328 0
      vertex -1.74171 -5.74164 22
      vertex -2.2961 -5.54328 22
    endloop
  endfacet
  facet normal -0.336884 -0.941546 -0
    outer loop
      vertex -1.74171 -5.74164 22
      vertex -2.2961 -5.54328 0
      vertex -1.74171 -5.74164 0
    endloop
  endfacet
  facet normal 0.671558 -0.740952 0
    outer loop
      vertex 3.80636 -4.63806 0
      vertex 4.24264 -4.24264 22
      vertex 3.80636 -4.63806 22
    endloop
  endfacet
  facet normal 0.671558 -0.740952 0
    outer loop
      vertex 4.24264 -4.24264 22
      vertex 3.80636 -4.63806 0
      vertex 4.24264 -4.24264 0
    endloop
  endfacet
  facet normal -0.740954 -0.671556 0
    outer loop
      vertex 2.24173 1.83974 0
      vertex 2.05061 2.05061 22
      vertex 2.05061 2.05061 0
    endloop
  endfacet
  facet normal -0.740954 -0.671556 0
    outer loop
      vertex 2.05061 2.05061 22
      vertex 2.24173 1.83974 0
      vertex 2.24173 1.83974 22
    endloop
  endfacet
  facet normal -0.989181 -0.146701 0
    outer loop
      vertex 2.88603 0.284249 0
      vertex 2.84428 0.565762 22
      vertex 2.84428 0.565762 0
    endloop
  endfacet
  facet normal -0.989181 -0.146701 0
    outer loop
      vertex 2.84428 0.565762 22
      vertex 2.88603 0.284249 0
      vertex 2.88603 0.284249 22
    endloop
  endfacet
  facet normal -0.998794 -0.0490878 0
    outer loop
      vertex 2.9 0 0
      vertex 2.88603 0.284249 22
      vertex 2.88603 0.284249 0
    endloop
  endfacet
  facet normal -0.998794 -0.0490878 0
    outer loop
      vertex 2.88603 0.284249 22
      vertex 2.9 0 0
      vertex 2.9 0 22
    endloop
  endfacet
  facet normal -0.970031 -0.24298 0
    outer loop
      vertex 2.84428 0.565762 0
      vertex 2.77513 0.841825 22
      vertex 2.77513 0.841825 0
    endloop
  endfacet
  facet normal -0.970031 -0.24298 0
    outer loop
      vertex 2.77513 0.841825 22
      vertex 2.84428 0.565762 0
      vertex 2.84428 0.565762 22
    endloop
  endfacet
  facet normal -0.336903 0.941539 0
    outer loop
      vertex 1.10978 -2.67925 0
      vertex 0.841825 -2.77513 22
      vertex 1.10978 -2.67925 22
    endloop
  endfacet
  facet normal -0.336903 0.941539 0
    outer loop
      vertex 0.841825 -2.77513 22
      vertex 1.10978 -2.67925 0
      vertex 0.841825 -2.77513 0
    endloop
  endfacet
  facet normal -0.857725 -0.514108 0
    outer loop
      vertex 2.55757 1.36705 0
      vertex 2.41126 1.61115 22
      vertex 2.41126 1.61115 0
    endloop
  endfacet
  facet normal -0.857725 -0.514108 0
    outer loop
      vertex 2.41126 1.61115 22
      vertex 2.55757 1.36705 0
      vertex 2.55757 1.36705 22
    endloop
  endfacet
  facet normal -0.24298 -0.970031 0
    outer loop
      vertex 0.565762 2.84428 0
      vertex 0.841825 2.77513 22
      vertex 0.565762 2.84428 22
    endloop
  endfacet
  facet normal -0.24298 -0.970031 -0
    outer loop
      vertex 0.841825 2.77513 22
      vertex 0.565762 2.84428 0
      vertex 0.841825 2.77513 0
    endloop
  endfacet
  facet normal 0.740954 -0.671556 0
    outer loop
      vertex -2.24173 1.83974 22
      vertex -2.05061 2.05061 0
      vertex -2.05061 2.05061 22
    endloop
  endfacet
  facet normal 0.740954 -0.671556 0
    outer loop
      vertex -2.05061 2.05061 0
      vertex -2.24173 1.83974 22
      vertex -2.24173 1.83974 0
    endloop
  endfacet
  facet normal -0.0490878 0.998794 0
    outer loop
      vertex 0.284249 -2.88603 0
      vertex 0 -2.9 22
      vertex 0.284249 -2.88603 22
    endloop
  endfacet
  facet normal -0.0490878 0.998794 0
    outer loop
      vertex 0 -2.9 22
      vertex 0.284249 -2.88603 0
      vertex 0 -2.9 0
    endloop
  endfacet
  facet normal -0.427556 -0.903989 0
    outer loop
      vertex 1.10978 2.67925 0
      vertex 1.36705 2.55757 22
      vertex 1.10978 2.67925 22
    endloop
  endfacet
  facet normal -0.427556 -0.903989 -0
    outer loop
      vertex 1.36705 2.55757 22
      vertex 1.10978 2.67925 0
      vertex 1.36705 2.55757 0
    endloop
  endfacet
  facet normal -0.671556 -0.740954 0
    outer loop
      vertex 1.83974 2.24173 0
      vertex 2.05061 2.05061 22
      vertex 1.83974 2.24173 22
    endloop
  endfacet
  facet normal -0.671556 -0.740954 -0
    outer loop
      vertex 2.05061 2.05061 22
      vertex 1.83974 2.24173 0
      vertex 2.05061 2.05061 0
    endloop
  endfacet
  facet normal 0.59569 0.803214 -0
    outer loop
      vertex -1.61115 -2.41126 0
      vertex -1.83974 -2.24173 22
      vertex -1.61115 -2.41126 22
    endloop
  endfacet
  facet normal 0.59569 0.803214 0
    outer loop
      vertex -1.83974 -2.24173 22
      vertex -1.61115 -2.41126 0
      vertex -1.83974 -2.24173 0
    endloop
  endfacet
  facet normal -0.24298 0.970031 0
    outer loop
      vertex 0.841825 -2.77513 0
      vertex 0.565762 -2.84428 22
      vertex 0.841825 -2.77513 22
    endloop
  endfacet
  facet normal -0.24298 0.970031 0
    outer loop
      vertex 0.565762 -2.84428 22
      vertex 0.841825 -2.77513 0
      vertex 0.565762 -2.84428 0
    endloop
  endfacet
  facet normal -0.989181 0.146701 0
    outer loop
      vertex 2.84428 -0.565762 0
      vertex 2.88603 -0.284249 22
      vertex 2.88603 -0.284249 0
    endloop
  endfacet
  facet normal -0.989181 0.146701 0
    outer loop
      vertex 2.88603 -0.284249 22
      vertex 2.84428 -0.565762 0
      vertex 2.84428 -0.565762 22
    endloop
  endfacet
  facet normal 0.24298 0.970031 -0
    outer loop
      vertex -0.565762 -2.84428 0
      vertex -0.841825 -2.77513 22
      vertex -0.565762 -2.84428 22
    endloop
  endfacet
  facet normal 0.24298 0.970031 0
    outer loop
      vertex -0.841825 -2.77513 22
      vertex -0.565762 -2.84428 0
      vertex -0.841825 -2.77513 0
    endloop
  endfacet
  facet normal 0.59569 -0.803214 0
    outer loop
      vertex -1.83974 2.24173 0
      vertex -1.61115 2.41126 22
      vertex -1.83974 2.24173 22
    endloop
  endfacet
  facet normal 0.59569 -0.803214 0
    outer loop
      vertex -1.61115 2.41126 22
      vertex -1.83974 2.24173 0
      vertex -1.61115 2.41126 0
    endloop
  endfacet
  facet normal 0.998794 0.0490878 0
    outer loop
      vertex -2.88603 -0.284249 22
      vertex -2.9 0 0
      vertex -2.9 0 22
    endloop
  endfacet
  facet normal 0.998794 0.0490878 0
    outer loop
      vertex -2.9 0 0
      vertex -2.88603 -0.284249 22
      vertex -2.88603 -0.284249 0
    endloop
  endfacet
  facet normal 0.970031 0.24298 0
    outer loop
      vertex -2.77513 -0.841825 22
      vertex -2.84428 -0.565762 0
      vertex -2.84428 -0.565762 22
    endloop
  endfacet
  facet normal 0.970031 0.24298 0
    outer loop
      vertex -2.84428 -0.565762 0
      vertex -2.77513 -0.841825 22
      vertex -2.77513 -0.841825 0
    endloop
  endfacet
  facet normal -0.970031 0.24298 0
    outer loop
      vertex 2.77513 -0.841825 0
      vertex 2.84428 -0.565762 22
      vertex 2.84428 -0.565762 0
    endloop
  endfacet
  facet normal -0.970031 0.24298 0
    outer loop
      vertex 2.84428 -0.565762 22
      vertex 2.77513 -0.841825 0
      vertex 2.77513 -0.841825 22
    endloop
  endfacet
  facet normal 0.514108 -0.857725 0
    outer loop
      vertex -1.61115 2.41126 0
      vertex -1.36705 2.55757 22
      vertex -1.61115 2.41126 22
    endloop
  endfacet
  facet normal 0.514108 -0.857725 0
    outer loop
      vertex -1.36705 2.55757 22
      vertex -1.61115 2.41126 0
      vertex -1.36705 2.55757 0
    endloop
  endfacet
  facet normal -0.59569 -0.803214 0
    outer loop
      vertex 1.61115 2.41126 0
      vertex 1.83974 2.24173 22
      vertex 1.61115 2.41126 22
    endloop
  endfacet
  facet normal -0.59569 -0.803214 -0
    outer loop
      vertex 1.83974 2.24173 22
      vertex 1.61115 2.41126 0
      vertex 1.83974 2.24173 0
    endloop
  endfacet
  facet normal 0.903989 0.427556 0
    outer loop
      vertex -2.55757 -1.36705 22
      vertex -2.67925 -1.10978 0
      vertex -2.67925 -1.10978 22
    endloop
  endfacet
  facet normal 0.903989 0.427556 0
    outer loop
      vertex -2.67925 -1.10978 0
      vertex -2.55757 -1.36705 22
      vertex -2.55757 -1.36705 0
    endloop
  endfacet
  facet normal -0.941539 0.336903 0
    outer loop
      vertex 2.67925 -1.10978 0
      vertex 2.77513 -0.841825 22
      vertex 2.77513 -0.841825 0
    endloop
  endfacet
  facet normal -0.941539 0.336903 0
    outer loop
      vertex 2.77513 -0.841825 22
      vertex 2.67925 -1.10978 0
      vertex 2.67925 -1.10978 22
    endloop
  endfacet
  facet normal -0.146701 -0.989181 0
    outer loop
      vertex 0.284249 2.88603 0
      vertex 0.565762 2.84428 22
      vertex 0.284249 2.88603 22
    endloop
  endfacet
  facet normal -0.146701 -0.989181 -0
    outer loop
      vertex 0.565762 2.84428 22
      vertex 0.284249 2.88603 0
      vertex 0.565762 2.84428 0
    endloop
  endfacet
  facet normal 0.427556 -0.903989 0
    outer loop
      vertex -1.36705 2.55757 0
      vertex -1.10978 2.67925 22
      vertex -1.36705 2.55757 22
    endloop
  endfacet
  facet normal 0.427556 -0.903989 0
    outer loop
      vertex -1.10978 2.67925 22
      vertex -1.36705 2.55757 0
      vertex -1.10978 2.67925 0
    endloop
  endfacet
  facet normal -0.514108 -0.857725 0
    outer loop
      vertex 1.36705 2.55757 0
      vertex 1.61115 2.41126 22
      vertex 1.36705 2.55757 22
    endloop
  endfacet
  facet normal -0.514108 -0.857725 -0
    outer loop
      vertex 1.61115 2.41126 22
      vertex 1.36705 2.55757 0
      vertex 1.61115 2.41126 0
    endloop
  endfacet
  facet normal -0.427556 0.903989 0
    outer loop
      vertex 1.36705 -2.55757 0
      vertex 1.10978 -2.67925 22
      vertex 1.36705 -2.55757 22
    endloop
  endfacet
  facet normal -0.427556 0.903989 0
    outer loop
      vertex 1.10978 -2.67925 22
      vertex 1.36705 -2.55757 0
      vertex 1.10978 -2.67925 0
    endloop
  endfacet
  facet normal 0.941539 0.336903 0
    outer loop
      vertex -2.67925 -1.10978 22
      vertex -2.77513 -0.841825 0
      vertex -2.77513 -0.841825 22
    endloop
  endfacet
  facet normal 0.941539 0.336903 0
    outer loop
      vertex -2.77513 -0.841825 0
      vertex -2.67925 -1.10978 22
      vertex -2.67925 -1.10978 0
    endloop
  endfacet
  facet normal -0.857725 0.514108 0
    outer loop
      vertex 2.41126 -1.61115 0
      vertex 2.55757 -1.36705 22
      vertex 2.55757 -1.36705 0
    endloop
  endfacet
  facet normal -0.857725 0.514108 0
    outer loop
      vertex 2.55757 -1.36705 22
      vertex 2.41126 -1.61115 0
      vertex 2.41126 -1.61115 22
    endloop
  endfacet
  facet normal -0.903989 0.427556 0
    outer loop
      vertex 2.55757 -1.36705 0
      vertex 2.67925 -1.10978 22
      vertex 2.67925 -1.10978 0
    endloop
  endfacet
  facet normal -0.903989 0.427556 0
    outer loop
      vertex 2.67925 -1.10978 22
      vertex 2.55757 -1.36705 0
      vertex 2.55757 -1.36705 22
    endloop
  endfacet
  facet normal -0.998794 0.0490878 0
    outer loop
      vertex 2.88603 -0.284249 0
      vertex 2.9 0 22
      vertex 2.9 0 0
    endloop
  endfacet
  facet normal -0.998794 0.0490878 0
    outer loop
      vertex 2.9 0 22
      vertex 2.88603 -0.284249 0
      vertex 2.88603 -0.284249 22
    endloop
  endfacet
  facet normal 0.146701 -0.989181 0
    outer loop
      vertex -0.565762 2.84428 0
      vertex -0.284249 2.88603 22
      vertex -0.565762 2.84428 22
    endloop
  endfacet
  facet normal 0.146701 -0.989181 0
    outer loop
      vertex -0.284249 2.88603 22
      vertex -0.565762 2.84428 0
      vertex -0.284249 2.88603 0
    endloop
  endfacet
  facet normal -0.146701 0.989181 0
    outer loop
      vertex 0.565762 -2.84428 0
      vertex 0.284249 -2.88603 22
      vertex 0.565762 -2.84428 22
    endloop
  endfacet
  facet normal -0.146701 0.989181 0
    outer loop
      vertex 0.284249 -2.88603 22
      vertex 0.565762 -2.84428 0
      vertex 0.284249 -2.88603 0
    endloop
  endfacet
  facet normal -0.941539 -0.336903 0
    outer loop
      vertex 2.77513 0.841825 0
      vertex 2.67925 1.10978 22
      vertex 2.67925 1.10978 0
    endloop
  endfacet
  facet normal -0.941539 -0.336903 0
    outer loop
      vertex 2.67925 1.10978 22
      vertex 2.77513 0.841825 0
      vertex 2.77513 0.841825 22
    endloop
  endfacet
  facet normal -0.740954 0.671556 0
    outer loop
      vertex 2.05061 -2.05061 0
      vertex 2.24173 -1.83974 22
      vertex 2.24173 -1.83974 0
    endloop
  endfacet
  facet normal -0.740954 0.671556 0
    outer loop
      vertex 2.24173 -1.83974 22
      vertex 2.05061 -2.05061 0
      vertex 2.05061 -2.05061 22
    endloop
  endfacet
  facet normal -0.803214 0.59569 0
    outer loop
      vertex 2.24173 -1.83974 0
      vertex 2.41126 -1.61115 22
      vertex 2.41126 -1.61115 0
    endloop
  endfacet
  facet normal -0.803214 0.59569 0
    outer loop
      vertex 2.41126 -1.61115 22
      vertex 2.24173 -1.83974 0
      vertex 2.24173 -1.83974 22
    endloop
  endfacet
  facet normal 0.24298 -0.970031 0
    outer loop
      vertex -0.841825 2.77513 0
      vertex -0.565762 2.84428 22
      vertex -0.841825 2.77513 22
    endloop
  endfacet
  facet normal 0.24298 -0.970031 0
    outer loop
      vertex -0.565762 2.84428 22
      vertex -0.841825 2.77513 0
      vertex -0.565762 2.84428 0
    endloop
  endfacet
  facet normal -0.803214 -0.59569 0
    outer loop
      vertex 2.41126 1.61115 0
      vertex 2.24173 1.83974 22
      vertex 2.24173 1.83974 0
    endloop
  endfacet
  facet normal -0.803214 -0.59569 0
    outer loop
      vertex 2.24173 1.83974 22
      vertex 2.41126 1.61115 0
      vertex 2.41126 1.61115 22
    endloop
  endfacet
  facet normal -0.0490878 -0.998794 0
    outer loop
      vertex 0 2.9 0
      vertex 0.284249 2.88603 22
      vertex 0 2.9 22
    endloop
  endfacet
  facet normal -0.0490878 -0.998794 -0
    outer loop
      vertex 0.284249 2.88603 22
      vertex 0 2.9 0
      vertex 0.284249 2.88603 0
    endloop
  endfacet
  facet normal -0.903989 -0.427556 0
    outer loop
      vertex 2.67925 1.10978 0
      vertex 2.55757 1.36705 22
      vertex 2.55757 1.36705 0
    endloop
  endfacet
  facet normal -0.903989 -0.427556 0
    outer loop
      vertex 2.55757 1.36705 22
      vertex 2.67925 1.10978 0
      vertex 2.67925 1.10978 22
    endloop
  endfacet
  facet normal 0.857725 -0.514108 0
    outer loop
      vertex -2.55757 1.36705 22
      vertex -2.41126 1.61115 0
      vertex -2.41126 1.61115 22
    endloop
  endfacet
  facet normal 0.857725 -0.514108 0
    outer loop
      vertex -2.41126 1.61115 0
      vertex -2.55757 1.36705 22
      vertex -2.55757 1.36705 0
    endloop
  endfacet
  facet normal 0.671556 -0.740954 0
    outer loop
      vertex -2.05061 2.05061 0
      vertex -1.83974 2.24173 22
      vertex -2.05061 2.05061 22
    endloop
  endfacet
  facet normal 0.671556 -0.740954 0
    outer loop
      vertex -1.83974 2.24173 22
      vertex -2.05061 2.05061 0
      vertex -1.83974 2.24173 0
    endloop
  endfacet
  facet normal 0.857725 0.514108 0
    outer loop
      vertex -2.41126 -1.61115 22
      vertex -2.55757 -1.36705 0
      vertex -2.55757 -1.36705 22
    endloop
  endfacet
  facet normal 0.857725 0.514108 0
    outer loop
      vertex -2.55757 -1.36705 0
      vertex -2.41126 -1.61115 22
      vertex -2.41126 -1.61115 0
    endloop
  endfacet
  facet normal 0.427556 0.903989 -0
    outer loop
      vertex -1.10978 -2.67925 0
      vertex -1.36705 -2.55757 22
      vertex -1.10978 -2.67925 22
    endloop
  endfacet
  facet normal 0.427556 0.903989 0
    outer loop
      vertex -1.36705 -2.55757 22
      vertex -1.10978 -2.67925 0
      vertex -1.36705 -2.55757 0
    endloop
  endfacet
  facet normal 0.740954 0.671556 0
    outer loop
      vertex -2.05061 -2.05061 22
      vertex -2.24173 -1.83974 0
      vertex -2.24173 -1.83974 22
    endloop
  endfacet
  facet normal 0.740954 0.671556 0
    outer loop
      vertex -2.24173 -1.83974 0
      vertex -2.05061 -2.05061 22
      vertex -2.05061 -2.05061 0
    endloop
  endfacet
  facet normal 0.336903 -0.941539 0
    outer loop
      vertex -1.10978 2.67925 0
      vertex -0.841825 2.77513 22
      vertex -1.10978 2.67925 22
    endloop
  endfacet
  facet normal 0.336903 -0.941539 0
    outer loop
      vertex -0.841825 2.77513 22
      vertex -1.10978 2.67925 0
      vertex -0.841825 2.77513 0
    endloop
  endfacet
  facet normal 0.514108 0.857725 -0
    outer loop
      vertex -1.36705 -2.55757 0
      vertex -1.61115 -2.41126 22
      vertex -1.36705 -2.55757 22
    endloop
  endfacet
  facet normal 0.514108 0.857725 0
    outer loop
      vertex -1.61115 -2.41126 22
      vertex -1.36705 -2.55757 0
      vertex -1.61115 -2.41126 0
    endloop
  endfacet
  facet normal -0.59569 0.803214 0
    outer loop
      vertex 1.83974 -2.24173 0
      vertex 1.61115 -2.41126 22
      vertex 1.83974 -2.24173 22
    endloop
  endfacet
  facet normal -0.59569 0.803214 0
    outer loop
      vertex 1.61115 -2.41126 22
      vertex 1.83974 -2.24173 0
      vertex 1.61115 -2.41126 0
    endloop
  endfacet
  facet normal 0.0490878 -0.998794 0
    outer loop
      vertex -0.284249 2.88603 0
      vertex 0 2.9 22
      vertex -0.284249 2.88603 22
    endloop
  endfacet
  facet normal 0.0490878 -0.998794 0
    outer loop
      vertex 0 2.9 22
      vertex -0.284249 2.88603 0
      vertex 0 2.9 0
    endloop
  endfacet
  facet normal 0.970031 -0.24298 0
    outer loop
      vertex -2.84428 0.565762 22
      vertex -2.77513 0.841825 0
      vertex -2.77513 0.841825 22
    endloop
  endfacet
  facet normal 0.970031 -0.24298 0
    outer loop
      vertex -2.77513 0.841825 0
      vertex -2.84428 0.565762 22
      vertex -2.84428 0.565762 0
    endloop
  endfacet
  facet normal 0.941539 -0.336903 0
    outer loop
      vertex -2.77513 0.841825 22
      vertex -2.67925 1.10978 0
      vertex -2.67925 1.10978 22
    endloop
  endfacet
  facet normal 0.941539 -0.336903 0
    outer loop
      vertex -2.67925 1.10978 0
      vertex -2.77513 0.841825 22
      vertex -2.77513 0.841825 0
    endloop
  endfacet
  facet normal -0.336903 -0.941539 0
    outer loop
      vertex 0.841825 2.77513 0
      vertex 1.10978 2.67925 22
      vertex 0.841825 2.77513 22
    endloop
  endfacet
  facet normal -0.336903 -0.941539 -0
    outer loop
      vertex 1.10978 2.67925 22
      vertex 0.841825 2.77513 0
      vertex 1.10978 2.67925 0
    endloop
  endfacet
  facet normal 0.803214 0.59569 0
    outer loop
      vertex -2.24173 -1.83974 22
      vertex -2.41126 -1.61115 0
      vertex -2.41126 -1.61115 22
    endloop
  endfacet
  facet normal 0.803214 0.59569 0
    outer loop
      vertex -2.41126 -1.61115 0
      vertex -2.24173 -1.83974 22
      vertex -2.24173 -1.83974 0
    endloop
  endfacet
  facet normal 0.989181 0.146701 0
    outer loop
      vertex -2.84428 -0.565762 22
      vertex -2.88603 -0.284249 0
      vertex -2.88603 -0.284249 22
    endloop
  endfacet
  facet normal 0.989181 0.146701 0
    outer loop
      vertex -2.88603 -0.284249 0
      vertex -2.84428 -0.565762 22
      vertex -2.84428 -0.565762 0
    endloop
  endfacet
  facet normal 0.903989 -0.427556 0
    outer loop
      vertex -2.67925 1.10978 22
      vertex -2.55757 1.36705 0
      vertex -2.55757 1.36705 22
    endloop
  endfacet
  facet normal 0.903989 -0.427556 0
    outer loop
      vertex -2.55757 1.36705 0
      vertex -2.67925 1.10978 22
      vertex -2.67925 1.10978 0
    endloop
  endfacet
  facet normal -0.514108 0.857725 0
    outer loop
      vertex 1.61115 -2.41126 0
      vertex 1.36705 -2.55757 22
      vertex 1.61115 -2.41126 22
    endloop
  endfacet
  facet normal -0.514108 0.857725 0
    outer loop
      vertex 1.36705 -2.55757 22
      vertex 1.61115 -2.41126 0
      vertex 1.36705 -2.55757 0
    endloop
  endfacet
  facet normal 0.671556 0.740954 -0
    outer loop
      vertex -1.83974 -2.24173 0
      vertex -2.05061 -2.05061 22
      vertex -1.83974 -2.24173 22
    endloop
  endfacet
  facet normal 0.671556 0.740954 0
    outer loop
      vertex -2.05061 -2.05061 22
      vertex -1.83974 -2.24173 0
      vertex -2.05061 -2.05061 0
    endloop
  endfacet
  facet normal 0.803214 -0.59569 0
    outer loop
      vertex -2.41126 1.61115 22
      vertex -2.24173 1.83974 0
      vertex -2.24173 1.83974 22
    endloop
  endfacet
  facet normal 0.803214 -0.59569 0
    outer loop
      vertex -2.24173 1.83974 0
      vertex -2.41126 1.61115 22
      vertex -2.41126 1.61115 0
    endloop
  endfacet
  facet normal 0.0490878 0.998794 -0
    outer loop
      vertex 0 -2.9 0
      vertex -0.284249 -2.88603 22
      vertex 0 -2.9 22
    endloop
  endfacet
  facet normal 0.0490878 0.998794 0
    outer loop
      vertex -0.284249 -2.88603 22
      vertex 0 -2.9 0
      vertex -0.284249 -2.88603 0
    endloop
  endfacet
  facet normal 0.146701 0.989181 -0
    outer loop
      vertex -0.284249 -2.88603 0
      vertex -0.565762 -2.84428 22
      vertex -0.284249 -2.88603 22
    endloop
  endfacet
  facet normal 0.146701 0.989181 0
    outer loop
      vertex -0.565762 -2.84428 22
      vertex -0.284249 -2.88603 0
      vertex -0.565762 -2.84428 0
    endloop
  endfacet
  facet normal 0.989181 -0.146701 0
    outer loop
      vertex -2.88603 0.284249 22
      vertex -2.84428 0.565762 0
      vertex -2.84428 0.565762 22
    endloop
  endfacet
  facet normal 0.989181 -0.146701 0
    outer loop
      vertex -2.84428 0.565762 0
      vertex -2.88603 0.284249 22
      vertex -2.88603 0.284249 0
    endloop
  endfacet
  facet normal 0.998794 -0.0490878 0
    outer loop
      vertex -2.9 0 22
      vertex -2.88603 0.284249 0
      vertex -2.88603 0.284249 22
    endloop
  endfacet
  facet normal 0.998794 -0.0490878 0
    outer loop
      vertex -2.88603 0.284249 0
      vertex -2.9 0 22
      vertex -2.9 0 0
    endloop
  endfacet
  facet normal 0.336903 0.941539 -0
    outer loop
      vertex -0.841825 -2.77513 0
      vertex -1.10978 -2.67925 22
      vertex -0.841825 -2.77513 22
    endloop
  endfacet
  facet normal 0.336903 0.941539 0
    outer loop
      vertex -1.10978 -2.67925 22
      vertex -0.841825 -2.77513 0
      vertex -1.10978 -2.67925 0
    endloop
  endfacet
  facet normal -0.671556 0.740954 0
    outer loop
      vertex 2.05061 -2.05061 0
      vertex 1.83974 -2.24173 22
      vertex 2.05061 -2.05061 22
    endloop
  endfacet
  facet normal -0.671556 0.740954 0
    outer loop
      vertex 1.83974 -2.24173 22
      vertex 2.05061 -2.05061 0
      vertex 1.83974 -2.24173 0
    endloop
  endfacet
endsolid OpenSCAD_Model
